<svg xmlns="http://www.w3.org/2000/svg" xmlns:xlink="http://www.w3.org/1999/xlink" width="100" zoomAndPan="magnify" viewBox="0 0 75 30.000001" height="40" preserveAspectRatio="xMidYMid meet" version="1.0"><defs><g/><clipPath id="d6cb78f29e"><path d="M 4.378906 2.449219 L 28.65625 2.449219 L 28.65625 26.726562 L 4.378906 26.726562 Z M 4.378906 2.449219 " clip-rule="nonzero"/></clipPath><clipPath id="6cd82fb03f"><path d="M 16.515625 2.449219 C 9.8125 2.449219 4.378906 7.886719 4.378906 14.589844 C 4.378906 21.292969 9.8125 26.726562 16.515625 26.726562 C 23.222656 26.726562 28.65625 21.292969 28.65625 14.589844 C 28.65625 7.886719 23.222656 2.449219 16.515625 2.449219 Z M 16.515625 2.449219 " clip-rule="nonzero"/></clipPath><clipPath id="0f39542809"><path d="M 2.660156 0.734375 L 30.355469 0.734375 L 30.355469 28.425781 L 2.660156 28.425781 Z M 2.660156 0.734375 " clip-rule="nonzero"/></clipPath><clipPath id="04f78b3909"><path d="M 16 0.734375 L 17 0.734375 L 17 3 L 16 3 Z M 16 0.734375 " clip-rule="nonzero"/></clipPath><clipPath id="9f238c23a4"><path d="M 16 26 L 17 26 L 17 28.425781 L 16 28.425781 Z M 16 26 " clip-rule="nonzero"/></clipPath><clipPath id="cc506b8da4"><path d="M 15 0.734375 L 16 0.734375 L 16 3 L 15 3 Z M 15 0.734375 " clip-rule="nonzero"/></clipPath><clipPath id="e36a4c91cb"><path d="M 17 26 L 18 26 L 18 28.425781 L 17 28.425781 Z M 17 26 " clip-rule="nonzero"/></clipPath><clipPath id="4a0e3c3a83"><path d="M 14 0.734375 L 16 0.734375 L 16 3 L 14 3 Z M 14 0.734375 " clip-rule="nonzero"/></clipPath><clipPath id="0d267b3324"><path d="M 17 26 L 19 26 L 19 28.425781 L 17 28.425781 Z M 17 26 " clip-rule="nonzero"/></clipPath><clipPath id="d45eefd986"><path d="M 13 0.734375 L 15 0.734375 L 15 4 L 13 4 Z M 13 0.734375 " clip-rule="nonzero"/></clipPath><clipPath id="882c30fdc3"><path d="M 18 25 L 20 25 L 20 28.425781 L 18 28.425781 Z M 18 25 " clip-rule="nonzero"/></clipPath><clipPath id="b05c0533ce"><path d="M 2.660156 11 L 6 11 L 6 13 L 2.660156 13 Z M 2.660156 11 " clip-rule="nonzero"/></clipPath><clipPath id="fdd71ab0bc"><path d="M 2.660156 12 L 5 12 L 5 14 L 2.660156 14 Z M 2.660156 12 " clip-rule="nonzero"/></clipPath><clipPath id="aaa19d2eb6"><path d="M 27 15 L 30.355469 15 L 30.355469 17 L 27 17 Z M 27 15 " clip-rule="nonzero"/></clipPath><clipPath id="f7fefa784f"><path d="M 2.660156 13 L 5 13 L 5 14 L 2.660156 14 Z M 2.660156 13 " clip-rule="nonzero"/></clipPath><clipPath id="fdf9ecf6ce"><path d="M 28 15 L 30.355469 15 L 30.355469 16 L 28 16 Z M 28 15 " clip-rule="nonzero"/></clipPath><clipPath id="60608a4d42"><path d="M 2.660156 14 L 5 14 L 5 15 L 2.660156 15 Z M 2.660156 14 " clip-rule="nonzero"/></clipPath><clipPath id="efd34b2147"><path d="M 28 14 L 30.355469 14 L 30.355469 15 L 28 15 Z M 28 14 " clip-rule="nonzero"/></clipPath><clipPath id="4c1b5a7ce3"><path d="M 2.660156 15 L 5 15 L 5 16 L 2.660156 16 Z M 2.660156 15 " clip-rule="nonzero"/></clipPath><clipPath id="289e8c20b7"><path d="M 28 13 L 30.355469 13 L 30.355469 14 L 28 14 Z M 28 13 " clip-rule="nonzero"/></clipPath><clipPath id="72dbbde117"><path d="M 2.660156 15 L 5 15 L 5 17 L 2.660156 17 Z M 2.660156 15 " clip-rule="nonzero"/></clipPath><clipPath id="5eaeb8614d"><path d="M 27 12 L 30.355469 12 L 30.355469 14 L 27 14 Z M 27 12 " clip-rule="nonzero"/></clipPath><clipPath id="9afe09aac2"><path d="M 2.660156 16 L 6 16 L 6 18 L 2.660156 18 Z M 2.660156 16 " clip-rule="nonzero"/></clipPath><clipPath id="25b9d3c9e2"><path d="M 13 25 L 15 25 L 15 28.425781 L 13 28.425781 Z M 13 25 " clip-rule="nonzero"/></clipPath><clipPath id="f44d4e3cce"><path d="M 14 26 L 16 26 L 16 28.425781 L 14 28.425781 Z M 14 26 " clip-rule="nonzero"/></clipPath><clipPath id="4808ba82cb"><path d="M 15 26 L 16 26 L 16 28.425781 L 15 28.425781 Z M 15 26 " clip-rule="nonzero"/></clipPath><clipPath id="84d2e49172"><path d="M 12.316406 6.859375 L 21 6.859375 L 21 22.164062 L 12.316406 22.164062 Z M 12.316406 6.859375 " clip-rule="nonzero"/></clipPath><clipPath id="67530a8daa"><path d="M 67 15 L 73.789062 15 L 73.789062 23 L 67 23 Z M 67 15 " clip-rule="nonzero"/></clipPath></defs><g clip-path="url(#d6cb78f29e)"><g clip-path="url(#6cd82fb03f)"><path fill="#1e1e2e" d="M 4.378906 2.449219 L 28.65625 2.449219 L 28.65625 26.726562 L 4.378906 26.726562 Z M 4.378906 2.449219 " fill-opacity="1" fill-rule="nonzero"/></g></g><g clip-path="url(#0f39542809)"><path fill="#cba6f7" d="M 27.617188 6.457031 C 27.765625 6.660156 27.90625 6.867188 28.042969 7.078125 C 28.0625 7.113281 28.082031 7.144531 28.101562 7.175781 C 28.234375 7.386719 28.363281 7.601562 28.484375 7.820312 C 28.503906 7.855469 28.523438 7.886719 28.539062 7.921875 C 28.660156 8.140625 28.773438 8.363281 28.882812 8.589844 C 28.898438 8.625 28.914062 8.660156 28.929688 8.695312 C 29.035156 8.921875 29.136719 9.152344 29.230469 9.382812 C 29.246094 9.417969 29.257812 9.453125 29.273438 9.488281 C 29.363281 9.722656 29.449219 9.957031 29.527344 10.199219 C 29.539062 10.234375 29.550781 10.269531 29.5625 10.304688 C 29.636719 10.542969 29.707031 10.785156 29.773438 11.027344 C 29.78125 11.066406 29.789062 11.101562 29.800781 11.136719 C 29.859375 11.378906 29.914062 11.625 29.964844 11.871094 L 29.984375 11.984375 C 30.03125 12.230469 30.070312 12.476562 30.101562 12.726562 C 30.105469 12.765625 30.109375 12.800781 30.113281 12.839844 C 30.144531 13.085938 30.167969 13.335938 30.183594 13.589844 C 30.1875 13.625 30.1875 13.664062 30.191406 13.703125 C 30.207031 13.949219 30.214844 14.199219 30.214844 14.453125 C 30.214844 14.472656 30.214844 14.492188 30.214844 14.511719 C 30.214844 14.527344 30.214844 14.546875 30.214844 14.566406 C 30.214844 14.820312 30.207031 15.070312 30.191406 15.320312 C 30.1875 15.355469 30.1875 15.394531 30.183594 15.433594 C 30.167969 15.683594 30.144531 15.933594 30.113281 16.179688 C 30.109375 16.21875 30.105469 16.253906 30.101562 16.292969 C 30.070312 16.542969 30.03125 16.789062 29.984375 17.035156 L 29.964844 17.148438 C 29.914062 17.394531 29.859375 17.640625 29.800781 17.882812 C 29.789062 17.917969 29.78125 17.957031 29.773438 17.992188 C 29.707031 18.234375 29.636719 18.476562 29.5625 18.714844 C 29.550781 18.75 29.539062 18.785156 29.527344 18.824219 C 29.449219 19.0625 29.363281 19.296875 29.273438 19.53125 C 29.257812 19.566406 29.246094 19.601562 29.230469 19.636719 C 29.136719 19.871094 29.035156 20.097656 28.929688 20.324219 C 28.914062 20.359375 28.898438 20.394531 28.882812 20.429688 C 28.773438 20.65625 28.660156 20.878906 28.539062 21.097656 C 28.523438 21.132812 28.503906 21.164062 28.484375 21.199219 C 28.363281 21.417969 28.234375 21.632812 28.101562 21.84375 C 28.082031 21.875 28.0625 21.910156 28.042969 21.941406 C 27.90625 22.152344 27.765625 22.359375 27.617188 22.5625 C 27.597656 22.59375 27.574219 22.625 27.550781 22.652344 C 27.402344 22.855469 27.25 23.054688 27.089844 23.25 C 27.066406 23.277344 27.042969 23.304688 27.015625 23.335938 C 26.855469 23.527344 26.691406 23.714844 26.519531 23.898438 C 26.492188 23.925781 26.46875 23.953125 26.441406 23.980469 C 26.269531 24.164062 26.09375 24.339844 25.910156 24.511719 C 25.882812 24.539062 25.855469 24.566406 25.828125 24.589844 C 25.644531 24.761719 25.457031 24.929688 25.265625 25.089844 C 25.234375 25.113281 25.207031 25.136719 25.175781 25.160156 C 24.984375 25.320312 24.785156 25.476562 24.582031 25.621094 C 24.550781 25.644531 24.519531 25.667969 24.492188 25.691406 C 24.289062 25.835938 24.078125 25.976562 23.867188 26.113281 C 23.835938 26.132812 23.804688 26.152344 23.773438 26.175781 C 23.5625 26.308594 23.34375 26.433594 23.125 26.558594 C 23.09375 26.574219 23.058594 26.59375 23.027344 26.613281 C 22.804688 26.734375 22.582031 26.847656 22.355469 26.953125 C 22.324219 26.96875 22.289062 26.988281 22.253906 27.003906 C 22.027344 27.109375 21.796875 27.207031 21.5625 27.300781 C 21.527344 27.316406 21.492188 27.328125 21.457031 27.34375 C 21.226562 27.433594 20.988281 27.519531 20.75 27.597656 C 20.714844 27.609375 20.679688 27.621094 20.644531 27.632812 C 20.40625 27.710938 20.164062 27.78125 19.921875 27.84375 C 19.882812 27.851562 19.847656 27.863281 19.808594 27.871094 C 19.566406 27.933594 19.324219 27.988281 19.074219 28.035156 L 18.964844 28.054688 C 18.71875 28.101562 18.472656 28.140625 18.222656 28.171875 C 18.183594 28.175781 18.148438 28.183594 18.109375 28.1875 C 17.859375 28.214844 17.613281 28.238281 17.359375 28.257812 C 17.320312 28.257812 17.285156 28.261719 17.246094 28.261719 C 16.996094 28.277344 16.746094 28.285156 16.496094 28.285156 C 16.476562 28.285156 16.457031 28.285156 16.4375 28.285156 C 16.417969 28.285156 16.402344 28.285156 16.382812 28.285156 C 16.128906 28.285156 15.878906 28.277344 15.628906 28.261719 C 15.59375 28.261719 15.554688 28.257812 15.515625 28.257812 C 15.265625 28.238281 15.015625 28.214844 14.769531 28.1875 C 14.730469 28.183594 14.691406 28.175781 14.65625 28.171875 C 14.40625 28.140625 14.15625 28.101562 13.910156 28.054688 L 13.800781 28.035156 C 13.554688 27.988281 13.308594 27.933594 13.066406 27.871094 C 13.03125 27.863281 12.992188 27.851562 12.957031 27.84375 C 12.710938 27.78125 12.472656 27.710938 12.234375 27.632812 C 12.199219 27.621094 12.160156 27.609375 12.125 27.597656 C 11.886719 27.519531 11.652344 27.433594 11.417969 27.34375 C 11.382812 27.328125 11.347656 27.316406 11.3125 27.300781 C 11.078125 27.207031 10.847656 27.109375 10.621094 27.003906 C 10.585938 26.988281 10.554688 26.96875 10.519531 26.953125 C 10.292969 26.847656 10.070312 26.734375 9.851562 26.613281 C 9.816406 26.59375 9.785156 26.574219 9.75 26.558594 C 9.53125 26.433594 9.316406 26.308594 9.105469 26.175781 C 9.070312 26.152344 9.039062 26.132812 9.007812 26.113281 C 8.796875 25.976562 8.589844 25.835938 8.386719 25.691406 C 8.355469 25.667969 8.324219 25.644531 8.292969 25.621094 C 8.09375 25.476562 7.894531 25.320312 7.699219 25.160156 C 7.671875 25.136719 7.640625 25.113281 7.613281 25.089844 C 7.421875 24.929688 7.234375 24.761719 7.050781 24.589844 C 7.023438 24.566406 6.992188 24.539062 6.964844 24.511719 C 6.785156 24.339844 6.605469 24.164062 6.433594 23.980469 C 6.410156 23.953125 6.382812 23.925781 6.355469 23.898438 C 6.1875 23.714844 6.019531 23.527344 5.859375 23.335938 C 5.835938 23.304688 5.8125 23.277344 5.785156 23.25 C 5.628906 23.054688 5.472656 22.855469 5.324219 22.652344 C 5.300781 22.625 5.28125 22.59375 5.257812 22.5625 C 5.113281 22.359375 4.972656 22.152344 4.835938 21.941406 C 4.8125 21.910156 4.792969 21.875 4.773438 21.84375 C 4.640625 21.632812 4.511719 21.417969 4.390625 21.199219 C 4.371094 21.164062 4.355469 21.132812 4.335938 21.097656 C 4.214844 20.878906 4.101562 20.65625 3.992188 20.429688 C 3.976562 20.394531 3.960938 20.359375 3.945312 20.324219 C 3.839844 20.097656 3.738281 19.871094 3.648438 19.636719 C 3.632812 19.601562 3.617188 19.566406 3.605469 19.53125 C 3.511719 19.296875 3.429688 19.0625 3.351562 18.824219 C 3.339844 18.785156 3.324219 18.75 3.316406 18.714844 C 3.238281 18.476562 3.167969 18.234375 3.105469 17.992188 C 3.09375 17.957031 3.085938 17.917969 3.078125 17.882812 C 3.015625 17.640625 2.960938 17.394531 2.914062 17.148438 L 2.890625 17.035156 C 2.847656 16.789062 2.808594 16.542969 2.777344 16.292969 C 2.769531 16.253906 2.765625 16.21875 2.761719 16.179688 C 2.730469 15.933594 2.707031 15.683594 2.691406 15.433594 C 2.6875 15.394531 2.6875 15.355469 2.683594 15.320312 C 2.671875 15.070312 2.664062 14.820312 2.660156 14.566406 C 2.660156 14.546875 2.660156 14.527344 2.660156 14.511719 C 2.660156 14.492188 2.660156 14.472656 2.660156 14.453125 C 2.660156 14.199219 2.671875 13.949219 2.683594 13.703125 C 2.6875 13.664062 2.6875 13.625 2.691406 13.589844 C 2.707031 13.335938 2.730469 13.085938 2.761719 12.839844 C 2.765625 12.800781 2.769531 12.765625 2.777344 12.726562 C 2.808594 12.476562 2.847656 12.230469 2.890625 11.984375 L 2.914062 11.871094 C 2.960938 11.625 3.015625 11.378906 3.078125 11.136719 C 3.085938 11.101562 3.09375 11.066406 3.105469 11.027344 C 3.167969 10.785156 3.238281 10.542969 3.316406 10.304688 C 3.324219 10.269531 3.339844 10.234375 3.351562 10.199219 C 3.429688 9.957031 3.511719 9.722656 3.605469 9.488281 C 3.617188 9.453125 3.632812 9.417969 3.648438 9.382812 C 3.738281 9.152344 3.839844 8.921875 3.945312 8.695312 C 3.960938 8.660156 3.976562 8.625 3.992188 8.589844 C 4.101562 8.363281 4.214844 8.140625 4.335938 7.921875 C 4.355469 7.886719 4.371094 7.855469 4.390625 7.820312 C 4.511719 7.601562 4.640625 7.386719 4.773438 7.175781 C 4.792969 7.144531 4.8125 7.113281 4.835938 7.078125 C 4.972656 6.867188 5.113281 6.660156 5.257812 6.457031 C 5.28125 6.425781 5.300781 6.394531 5.324219 6.367188 C 5.472656 6.164062 5.628906 5.964844 5.785156 5.773438 C 5.8125 5.742188 5.835938 5.714844 5.859375 5.683594 C 6.019531 5.492188 6.1875 5.304688 6.355469 5.121094 C 6.382812 5.09375 6.410156 5.066406 6.433594 5.039062 C 6.605469 4.855469 6.785156 4.679688 6.964844 4.507812 C 6.992188 4.480469 7.023438 4.453125 7.050781 4.429688 C 7.234375 4.257812 7.421875 4.09375 7.613281 3.929688 C 7.640625 3.90625 7.671875 3.882812 7.699219 3.859375 C 7.894531 3.699219 8.09375 3.546875 8.292969 3.398438 C 8.324219 3.375 8.355469 3.351562 8.386719 3.332031 C 8.589844 3.183594 8.796875 3.042969 9.007812 2.90625 C 9.039062 2.886719 9.070312 2.867188 9.105469 2.847656 C 9.316406 2.710938 9.53125 2.585938 9.75 2.460938 C 9.785156 2.445312 9.816406 2.425781 9.851562 2.40625 C 10.070312 2.289062 10.292969 2.171875 10.519531 2.066406 C 10.554688 2.050781 10.585938 2.03125 10.621094 2.015625 C 10.847656 1.910156 11.078125 1.8125 11.3125 1.71875 C 11.347656 1.703125 11.382812 1.691406 11.417969 1.675781 C 11.652344 1.585938 11.886719 1.5 12.125 1.421875 C 12.160156 1.410156 12.199219 1.398438 12.234375 1.386719 C 12.472656 1.308594 12.710938 1.238281 12.957031 1.175781 C 12.992188 1.167969 13.03125 1.15625 13.066406 1.148438 C 13.308594 1.089844 13.554688 1.035156 13.800781 0.984375 L 13.910156 0.964844 C 14.15625 0.917969 14.40625 0.878906 14.65625 0.847656 C 14.691406 0.84375 14.730469 0.839844 14.769531 0.832031 C 15.015625 0.804688 15.265625 0.78125 15.515625 0.761719 C 15.554688 0.761719 15.59375 0.757812 15.628906 0.757812 C 15.878906 0.742188 16.128906 0.734375 16.382812 0.734375 C 16.402344 0.734375 16.417969 0.734375 16.4375 0.734375 C 16.457031 0.734375 16.476562 0.734375 16.496094 0.734375 L 16.496094 2.882812 C 16.476562 2.882812 16.457031 2.882812 16.4375 2.882812 C 16.417969 2.882812 16.402344 2.882812 16.382812 2.882812 C 16.175781 2.882812 15.96875 2.886719 15.765625 2.898438 C 15.726562 2.902344 15.6875 2.90625 15.652344 2.90625 C 15.445312 2.921875 15.238281 2.941406 15.035156 2.964844 C 15 2.96875 14.960938 2.972656 14.925781 2.976562 C 14.71875 3.003906 14.515625 3.035156 14.3125 3.074219 C 14.277344 3.082031 14.238281 3.085938 14.203125 3.09375 C 14 3.132812 13.796875 3.179688 13.601562 3.230469 C 13.5625 3.238281 13.527344 3.246094 13.492188 3.257812 C 13.289062 3.308594 13.09375 3.367188 12.898438 3.429688 C 12.859375 3.441406 12.824219 3.453125 12.789062 3.464844 C 12.59375 3.527344 12.398438 3.597656 12.210938 3.671875 C 12.171875 3.6875 12.136719 3.699219 12.101562 3.714844 C 11.910156 3.792969 11.722656 3.875 11.535156 3.960938 C 11.503906 3.976562 11.46875 3.992188 11.433594 4.007812 C 11.25 4.097656 11.066406 4.191406 10.886719 4.289062 C 10.851562 4.308594 10.816406 4.328125 10.785156 4.34375 C 10.605469 4.445312 10.429688 4.550781 10.253906 4.660156 C 10.222656 4.679688 10.191406 4.699219 10.15625 4.71875 C 9.984375 4.832031 9.8125 4.949219 9.648438 5.066406 C 9.617188 5.089844 9.585938 5.113281 9.558594 5.132812 C 9.390625 5.257812 9.226562 5.382812 9.070312 5.511719 C 9.039062 5.535156 9.011719 5.5625 8.980469 5.585938 C 8.824219 5.71875 8.667969 5.851562 8.519531 5.992188 C 8.492188 6.019531 8.464844 6.046875 8.4375 6.070312 C 8.285156 6.214844 8.140625 6.359375 8 6.507812 C 7.972656 6.535156 7.945312 6.5625 7.921875 6.589844 C 7.78125 6.742188 7.644531 6.894531 7.511719 7.054688 C 7.488281 7.082031 7.464844 7.113281 7.441406 7.140625 C 7.3125 7.300781 7.183594 7.460938 7.0625 7.628906 C 7.039062 7.660156 7.019531 7.6875 6.996094 7.71875 C 6.875 7.886719 6.757812 8.054688 6.648438 8.230469 C 6.628906 8.261719 6.609375 8.292969 6.585938 8.324219 C 6.476562 8.5 6.375 8.675781 6.273438 8.855469 C 6.253906 8.890625 6.234375 8.921875 6.21875 8.957031 C 6.121094 9.136719 6.027344 9.320312 5.9375 9.507812 C 5.921875 9.539062 5.90625 9.574219 5.890625 9.609375 C 5.800781 9.792969 5.71875 9.984375 5.644531 10.175781 C 5.628906 10.210938 5.617188 10.246094 5.601562 10.28125 C 5.527344 10.472656 5.457031 10.664062 5.394531 10.859375 C 5.382812 10.898438 5.371094 10.933594 5.359375 10.96875 C 5.296875 11.164062 5.238281 11.363281 5.1875 11.5625 C 5.175781 11.597656 5.167969 11.636719 5.15625 11.671875 C 5.109375 11.871094 5.0625 12.070312 5.023438 12.273438 C 5.015625 12.3125 5.007812 12.347656 5.003906 12.386719 C 4.964844 12.585938 4.933594 12.789062 4.90625 12.996094 C 4.902344 13.035156 4.898438 13.070312 4.894531 13.109375 C 4.867188 13.3125 4.847656 13.515625 4.835938 13.722656 C 4.832031 13.761719 4.832031 13.796875 4.828125 13.835938 C 4.816406 14.039062 4.808594 14.246094 4.808594 14.453125 C 4.808594 14.472656 4.808594 14.492188 4.808594 14.511719 C 4.808594 14.527344 4.808594 14.546875 4.808594 14.566406 C 4.808594 14.773438 4.816406 14.980469 4.828125 15.183594 C 4.832031 15.222656 4.832031 15.257812 4.835938 15.296875 C 4.847656 15.503906 4.867188 15.707031 4.894531 15.910156 C 4.898438 15.949219 4.902344 15.988281 4.90625 16.023438 C 4.933594 16.230469 4.964844 16.433594 5.003906 16.632812 C 5.007812 16.671875 5.015625 16.707031 5.023438 16.746094 C 5.0625 16.949219 5.109375 17.148438 5.15625 17.347656 C 5.167969 17.386719 5.175781 17.421875 5.1875 17.457031 C 5.238281 17.65625 5.296875 17.855469 5.359375 18.050781 C 5.371094 18.085938 5.382812 18.125 5.394531 18.160156 C 5.457031 18.355469 5.527344 18.546875 5.601562 18.738281 C 5.617188 18.773438 5.628906 18.808594 5.644531 18.84375 C 5.71875 19.035156 5.800781 19.226562 5.890625 19.410156 C 5.90625 19.445312 5.921875 19.480469 5.9375 19.511719 C 6.027344 19.699219 6.121094 19.882812 6.21875 20.0625 C 6.234375 20.097656 6.253906 20.128906 6.273438 20.164062 C 6.375 20.34375 6.476562 20.519531 6.585938 20.695312 C 6.609375 20.726562 6.628906 20.757812 6.648438 20.789062 C 6.757812 20.964844 6.875 21.132812 6.996094 21.300781 C 7.019531 21.332031 7.039062 21.363281 7.0625 21.390625 C 7.183594 21.558594 7.3125 21.71875 7.441406 21.878906 C 7.464844 21.910156 7.488281 21.9375 7.511719 21.964844 C 7.644531 22.125 7.78125 22.277344 7.921875 22.429688 C 7.945312 22.457031 7.972656 22.484375 8 22.511719 C 8.140625 22.660156 8.285156 22.808594 8.4375 22.949219 C 8.464844 22.976562 8.492188 23 8.519531 23.027344 C 8.667969 23.167969 8.824219 23.304688 8.980469 23.433594 C 9.011719 23.460938 9.039062 23.484375 9.070312 23.507812 C 9.226562 23.636719 9.390625 23.765625 9.558594 23.886719 C 9.585938 23.910156 9.617188 23.929688 9.648438 23.953125 C 9.8125 24.074219 9.984375 24.1875 10.15625 24.300781 C 10.191406 24.320312 10.222656 24.339844 10.253906 24.359375 C 10.429688 24.46875 10.605469 24.574219 10.785156 24.675781 C 10.816406 24.695312 10.851562 24.710938 10.886719 24.730469 C 11.066406 24.828125 11.25 24.921875 11.433594 25.011719 C 11.46875 25.027344 11.503906 25.042969 11.535156 25.058594 C 11.722656 25.144531 11.910156 25.226562 12.101562 25.304688 C 12.136719 25.320312 12.171875 25.332031 12.210938 25.347656 C 12.398438 25.421875 12.59375 25.492188 12.789062 25.554688 C 12.824219 25.566406 12.859375 25.578125 12.898438 25.589844 C 13.09375 25.652344 13.289062 25.710938 13.492188 25.761719 C 13.527344 25.773438 13.5625 25.78125 13.601562 25.789062 C 13.796875 25.839844 14 25.886719 14.203125 25.925781 C 14.238281 25.933594 14.277344 25.9375 14.3125 25.945312 C 14.515625 25.984375 14.71875 26.015625 14.925781 26.042969 C 14.960938 26.046875 15 26.050781 15.035156 26.054688 C 15.238281 26.082031 15.445312 26.097656 15.652344 26.113281 C 15.6875 26.117188 15.726562 26.117188 15.765625 26.121094 C 15.96875 26.132812 16.175781 26.136719 16.382812 26.140625 C 16.402344 26.140625 16.417969 26.140625 16.4375 26.140625 C 16.457031 26.140625 16.476562 26.140625 16.496094 26.140625 C 16.703125 26.136719 16.90625 26.132812 17.113281 26.121094 C 17.148438 26.117188 17.1875 26.117188 17.226562 26.113281 C 17.429688 26.097656 17.636719 26.082031 17.839844 26.054688 C 17.878906 26.050781 17.914062 26.046875 17.953125 26.042969 C 18.15625 26.015625 18.359375 25.984375 18.5625 25.945312 C 18.597656 25.9375 18.636719 25.933594 18.671875 25.925781 C 18.875 25.886719 19.078125 25.839844 19.277344 25.789062 C 19.3125 25.78125 19.351562 25.773438 19.386719 25.761719 C 19.585938 25.710938 19.785156 25.652344 19.980469 25.589844 C 20.015625 25.578125 20.050781 25.566406 20.085938 25.554688 C 20.285156 25.492188 20.476562 25.421875 20.667969 25.347656 C 20.703125 25.332031 20.738281 25.320312 20.773438 25.304688 C 20.964844 25.226562 21.152344 25.144531 21.339844 25.058594 C 21.375 25.042969 21.40625 25.027344 21.441406 25.011719 C 21.628906 24.921875 21.8125 24.828125 21.992188 24.730469 C 22.023438 24.710938 22.058594 24.695312 22.089844 24.675781 C 22.273438 24.574219 22.449219 24.46875 22.621094 24.359375 C 22.65625 24.339844 22.6875 24.320312 22.71875 24.300781 C 22.890625 24.1875 23.0625 24.074219 23.230469 23.953125 C 23.257812 23.929688 23.289062 23.910156 23.320312 23.886719 C 23.484375 23.765625 23.648438 23.636719 23.808594 23.507812 C 23.835938 23.484375 23.867188 23.460938 23.894531 23.433594 C 24.054688 23.304688 24.207031 23.167969 24.359375 23.027344 C 24.386719 23 24.414062 22.976562 24.441406 22.949219 C 24.589844 22.808594 24.734375 22.660156 24.875 22.511719 C 24.902344 22.484375 24.929688 22.457031 24.953125 22.429688 C 25.09375 22.277344 25.230469 22.125 25.363281 21.964844 C 25.386719 21.9375 25.410156 21.910156 25.433594 21.878906 C 25.566406 21.71875 25.691406 21.558594 25.8125 21.390625 C 25.835938 21.363281 25.859375 21.332031 25.878906 21.300781 C 26 21.132812 26.117188 20.964844 26.226562 20.789062 C 26.25 20.757812 26.269531 20.726562 26.289062 20.695312 C 26.398438 20.519531 26.503906 20.34375 26.601562 20.164062 C 26.621094 20.128906 26.640625 20.097656 26.660156 20.0625 C 26.757812 19.882812 26.851562 19.699219 26.9375 19.511719 C 26.957031 19.480469 26.972656 19.445312 26.988281 19.410156 C 27.074219 19.226562 27.15625 19.035156 27.234375 18.84375 C 27.246094 18.808594 27.261719 18.773438 27.273438 18.738281 C 27.347656 18.546875 27.417969 18.355469 27.484375 18.160156 C 27.496094 18.125 27.507812 18.085938 27.519531 18.050781 C 27.582031 17.855469 27.636719 17.65625 27.691406 17.457031 C 27.699219 17.421875 27.710938 17.386719 27.71875 17.347656 C 27.769531 17.148438 27.8125 16.949219 27.851562 16.746094 C 27.859375 16.707031 27.867188 16.671875 27.875 16.632812 C 27.910156 16.433594 27.941406 16.230469 27.96875 16.023438 C 27.976562 15.988281 27.980469 15.949219 27.984375 15.910156 C 28.007812 15.707031 28.027344 15.503906 28.042969 15.296875 C 28.042969 15.257812 28.046875 15.222656 28.046875 15.183594 C 28.058594 14.980469 28.066406 14.773438 28.066406 14.566406 C 28.066406 14.546875 28.066406 14.527344 28.066406 14.511719 C 28.066406 14.492188 28.066406 14.472656 28.066406 14.453125 C 28.066406 14.246094 28.058594 14.039062 28.046875 13.835938 C 28.046875 13.796875 28.042969 13.761719 28.042969 13.722656 C 28.027344 13.515625 28.007812 13.3125 27.984375 13.109375 C 27.980469 13.070312 27.976562 13.035156 27.96875 12.996094 C 27.941406 12.789062 27.910156 12.585938 27.875 12.386719 C 27.867188 12.347656 27.859375 12.3125 27.851562 12.273438 C 27.8125 12.070312 27.769531 11.871094 27.71875 11.671875 C 27.710938 11.636719 27.699219 11.597656 27.691406 11.5625 C 27.636719 11.363281 27.582031 11.164062 27.519531 10.96875 C 27.507812 10.933594 27.496094 10.898438 27.484375 10.859375 C 27.417969 10.664062 27.347656 10.472656 27.273438 10.28125 C 27.261719 10.246094 27.246094 10.210938 27.234375 10.175781 C 27.15625 9.984375 27.074219 9.792969 26.988281 9.609375 C 26.972656 9.574219 26.957031 9.539062 26.9375 9.507812 C 26.851562 9.320312 26.757812 9.136719 26.660156 8.957031 C 26.640625 8.921875 26.621094 8.890625 26.601562 8.855469 C 26.503906 8.675781 26.398438 8.5 26.289062 8.324219 C 26.269531 8.292969 26.25 8.261719 26.226562 8.230469 C 26.117188 8.054688 26 7.886719 25.878906 7.71875 Z M 27.617188 6.457031 " fill-opacity="1" fill-rule="nonzero"/></g><g clip-path="url(#04f78b3909)"><path fill="#cba6f7" d="M 16.496094 0.734375 L 16.496094 2.882812 C 16.476562 2.878906 16.457031 2.878906 16.4375 2.878906 C 16.417969 2.878906 16.402344 2.878906 16.382812 2.882812 L 16.382812 0.734375 C 16.402344 0.734375 16.417969 0.734375 16.4375 0.734375 C 16.457031 0.734375 16.476562 0.734375 16.496094 0.734375 Z M 16.496094 0.734375 " fill-opacity="1" fill-rule="nonzero"/></g><g clip-path="url(#9f238c23a4)"><path fill="#cba6f7" d="M 16.496094 26.140625 L 16.496094 28.285156 C 16.476562 28.285156 16.457031 28.285156 16.4375 28.285156 C 16.417969 28.285156 16.402344 28.285156 16.382812 28.285156 L 16.382812 26.140625 C 16.402344 26.140625 16.417969 26.140625 16.4375 26.140625 C 16.457031 26.140625 16.476562 26.140625 16.496094 26.140625 Z M 16.496094 26.140625 " fill-opacity="1" fill-rule="nonzero"/></g><g clip-path="url(#cc506b8da4)"><path fill="#cba6f7" d="M 15.765625 2.898438 C 15.726562 2.902344 15.6875 2.90625 15.652344 2.90625 L 15.515625 0.761719 C 15.554688 0.761719 15.59375 0.757812 15.628906 0.757812 Z M 15.765625 2.898438 " fill-opacity="1" fill-rule="nonzero"/></g><g clip-path="url(#e36a4c91cb)"><path fill="#cba6f7" d="M 17.359375 28.257812 C 17.320312 28.257812 17.285156 28.261719 17.246094 28.261719 L 17.113281 26.121094 C 17.148438 26.117188 17.1875 26.117188 17.226562 26.113281 Z M 17.359375 28.257812 " fill-opacity="1" fill-rule="nonzero"/></g><g clip-path="url(#4a0e3c3a83)"><path fill="#cba6f7" d="M 15.035156 2.964844 C 15 2.96875 14.960938 2.972656 14.925781 2.976562 L 14.65625 0.847656 C 14.691406 0.84375 14.730469 0.839844 14.769531 0.832031 Z M 15.035156 2.964844 " fill-opacity="1" fill-rule="nonzero"/></g><g clip-path="url(#0d267b3324)"><path fill="#cba6f7" d="M 18.222656 28.171875 C 18.183594 28.175781 18.148438 28.183594 18.109375 28.1875 L 17.839844 26.054688 C 17.878906 26.050781 17.914062 26.046875 17.953125 26.042969 Z M 18.222656 28.171875 " fill-opacity="1" fill-rule="nonzero"/></g><g clip-path="url(#d45eefd986)"><path fill="#cba6f7" d="M 14.3125 3.074219 C 14.277344 3.082031 14.238281 3.085938 14.203125 3.09375 L 13.800781 0.984375 C 13.835938 0.976562 13.875 0.972656 13.910156 0.964844 Z M 14.3125 3.074219 " fill-opacity="1" fill-rule="nonzero"/></g><g clip-path="url(#882c30fdc3)"><path fill="#cba6f7" d="M 19.074219 28.035156 C 19.039062 28.042969 19 28.046875 18.964844 28.054688 L 18.5625 25.945312 C 18.597656 25.9375 18.636719 25.933594 18.671875 25.925781 Z M 19.074219 28.035156 " fill-opacity="1" fill-rule="nonzero"/></g><path fill="#cba6f7" d="M 13.601562 3.230469 C 13.5625 3.238281 13.527344 3.246094 13.492188 3.257812 L 12.957031 1.175781 C 12.992188 1.167969 13.03125 1.15625 13.066406 1.148438 Z M 13.601562 3.230469 " fill-opacity="1" fill-rule="nonzero"/><path fill="#cba6f7" d="M 19.921875 27.84375 C 19.882812 27.851562 19.847656 27.863281 19.808594 27.871094 L 19.277344 25.789062 C 19.3125 25.78125 19.351562 25.773438 19.386719 25.761719 Z M 19.921875 27.84375 " fill-opacity="1" fill-rule="nonzero"/><path fill="#cba6f7" d="M 12.898438 3.429688 C 12.859375 3.441406 12.824219 3.453125 12.789062 3.464844 L 12.125 1.421875 C 12.160156 1.410156 12.199219 1.398438 12.234375 1.386719 Z M 12.898438 3.429688 " fill-opacity="1" fill-rule="nonzero"/><path fill="#cba6f7" d="M 20.75 27.597656 C 20.714844 27.609375 20.679688 27.621094 20.644531 27.632812 L 19.980469 25.589844 C 20.015625 25.578125 20.050781 25.566406 20.085938 25.554688 Z M 20.75 27.597656 " fill-opacity="1" fill-rule="nonzero"/><path fill="#cba6f7" d="M 12.210938 3.671875 C 12.171875 3.6875 12.136719 3.699219 12.101562 3.714844 L 11.3125 1.71875 C 11.347656 1.703125 11.382812 1.691406 11.417969 1.675781 Z M 12.210938 3.671875 " fill-opacity="1" fill-rule="nonzero"/><path fill="#cba6f7" d="M 21.5625 27.300781 C 21.527344 27.316406 21.492188 27.328125 21.457031 27.34375 L 20.667969 25.347656 C 20.703125 25.332031 20.738281 25.320312 20.773438 25.304688 Z M 21.5625 27.300781 " fill-opacity="1" fill-rule="nonzero"/><path fill="#cba6f7" d="M 11.535156 3.960938 C 11.503906 3.976562 11.46875 3.992188 11.433594 4.007812 L 10.519531 2.066406 C 10.554688 2.050781 10.585938 2.03125 10.621094 2.015625 Z M 11.535156 3.960938 " fill-opacity="1" fill-rule="nonzero"/><path fill="#cba6f7" d="M 22.355469 26.953125 C 22.324219 26.96875 22.289062 26.988281 22.253906 27.003906 L 21.339844 25.058594 C 21.375 25.042969 21.40625 25.027344 21.441406 25.011719 Z M 22.355469 26.953125 " fill-opacity="1" fill-rule="nonzero"/><path fill="#cba6f7" d="M 10.886719 4.289062 C 10.851562 4.308594 10.816406 4.328125 10.785156 4.34375 L 9.75 2.460938 C 9.785156 2.445312 9.816406 2.425781 9.851562 2.40625 Z M 10.886719 4.289062 " fill-opacity="1" fill-rule="nonzero"/><path fill="#cba6f7" d="M 23.125 26.558594 C 23.09375 26.574219 23.058594 26.59375 23.027344 26.613281 L 21.992188 24.730469 C 22.023438 24.710938 22.058594 24.695312 22.089844 24.675781 Z M 23.125 26.558594 " fill-opacity="1" fill-rule="nonzero"/><path fill="#cba6f7" d="M 10.253906 4.660156 C 10.222656 4.679688 10.191406 4.699219 10.15625 4.71875 L 9.007812 2.90625 C 9.039062 2.886719 9.070312 2.867188 9.105469 2.847656 Z M 10.253906 4.660156 " fill-opacity="1" fill-rule="nonzero"/><path fill="#cba6f7" d="M 23.867188 26.113281 C 23.835938 26.132812 23.804688 26.152344 23.773438 26.175781 L 22.621094 24.359375 C 22.65625 24.339844 22.6875 24.320312 22.71875 24.300781 Z M 23.867188 26.113281 " fill-opacity="1" fill-rule="nonzero"/><path fill="#cba6f7" d="M 9.648438 5.066406 C 9.617188 5.089844 9.585938 5.113281 9.558594 5.132812 L 8.292969 3.398438 C 8.324219 3.375 8.355469 3.351562 8.386719 3.332031 Z M 9.648438 5.066406 " fill-opacity="1" fill-rule="nonzero"/><path fill="#cba6f7" d="M 24.582031 25.621094 C 24.550781 25.644531 24.519531 25.667969 24.492188 25.691406 L 23.230469 23.953125 C 23.257812 23.929688 23.289062 23.910156 23.320312 23.886719 Z M 24.582031 25.621094 " fill-opacity="1" fill-rule="nonzero"/><path fill="#cba6f7" d="M 9.070312 5.511719 C 9.039062 5.535156 9.011719 5.5625 8.980469 5.585938 L 7.613281 3.929688 C 7.640625 3.90625 7.671875 3.882812 7.699219 3.859375 Z M 9.070312 5.511719 " fill-opacity="1" fill-rule="nonzero"/><path fill="#cba6f7" d="M 25.265625 25.089844 C 25.234375 25.113281 25.207031 25.136719 25.175781 25.160156 L 23.808594 23.507812 C 23.835938 23.484375 23.867188 23.460938 23.894531 23.433594 Z M 25.265625 25.089844 " fill-opacity="1" fill-rule="nonzero"/><path fill="#cba6f7" d="M 8.519531 5.992188 C 8.492188 6.019531 8.464844 6.046875 8.4375 6.070312 L 6.964844 4.507812 C 6.992188 4.480469 7.023438 4.453125 7.050781 4.429688 Z M 8.519531 5.992188 " fill-opacity="1" fill-rule="nonzero"/><path fill="#cba6f7" d="M 25.910156 24.511719 C 25.882812 24.539062 25.855469 24.566406 25.828125 24.589844 L 24.359375 23.027344 C 24.386719 23 24.414062 22.976562 24.441406 22.949219 Z M 25.910156 24.511719 " fill-opacity="1" fill-rule="nonzero"/><path fill="#cba6f7" d="M 8 6.507812 C 7.972656 6.535156 7.945312 6.5625 7.921875 6.589844 L 6.355469 5.121094 C 6.382812 5.09375 6.410156 5.066406 6.433594 5.039062 Z M 8 6.507812 " fill-opacity="1" fill-rule="nonzero"/><path fill="#cba6f7" d="M 26.519531 23.898438 C 26.492188 23.925781 26.46875 23.953125 26.441406 23.980469 L 24.875 22.511719 C 24.902344 22.484375 24.929688 22.457031 24.953125 22.429688 Z M 26.519531 23.898438 " fill-opacity="1" fill-rule="nonzero"/><path fill="#cba6f7" d="M 7.511719 7.054688 C 7.488281 7.082031 7.464844 7.113281 7.441406 7.140625 L 5.785156 5.773438 C 5.8125 5.742188 5.835938 5.714844 5.859375 5.683594 Z M 7.511719 7.054688 " fill-opacity="1" fill-rule="nonzero"/><path fill="#cba6f7" d="M 27.089844 23.25 C 27.066406 23.277344 27.042969 23.304688 27.015625 23.335938 L 25.363281 21.964844 C 25.386719 21.9375 25.410156 21.910156 25.433594 21.878906 Z M 27.089844 23.25 " fill-opacity="1" fill-rule="nonzero"/><path fill="#cba6f7" d="M 7.0625 7.628906 C 7.039062 7.660156 7.019531 7.6875 6.996094 7.71875 L 5.257812 6.457031 C 5.28125 6.425781 5.300781 6.394531 5.324219 6.367188 Z M 7.0625 7.628906 " fill-opacity="1" fill-rule="nonzero"/><path fill="#cba6f7" d="M 27.617188 22.5625 C 27.597656 22.59375 27.574219 22.625 27.550781 22.652344 L 25.8125 21.390625 C 25.835938 21.363281 25.859375 21.332031 25.878906 21.300781 Z M 27.617188 22.5625 " fill-opacity="1" fill-rule="nonzero"/><path fill="#cba6f7" d="M 6.648438 8.230469 C 6.628906 8.261719 6.609375 8.292969 6.585938 8.324219 L 4.773438 7.175781 C 4.792969 7.144531 4.8125 7.113281 4.835938 7.078125 Z M 6.648438 8.230469 " fill-opacity="1" fill-rule="nonzero"/><path fill="#cba6f7" d="M 28.101562 21.84375 C 28.082031 21.875 28.0625 21.910156 28.042969 21.941406 L 26.226562 20.789062 C 26.25 20.757812 26.269531 20.726562 26.289062 20.695312 Z M 28.101562 21.84375 " fill-opacity="1" fill-rule="nonzero"/><path fill="#cba6f7" d="M 6.273438 8.855469 C 6.253906 8.890625 6.234375 8.921875 6.21875 8.957031 L 4.335938 7.921875 C 4.355469 7.886719 4.371094 7.855469 4.390625 7.820312 Z M 6.273438 8.855469 " fill-opacity="1" fill-rule="nonzero"/><path fill="#cba6f7" d="M 28.539062 21.097656 C 28.523438 21.132812 28.503906 21.164062 28.484375 21.199219 L 26.601562 20.164062 C 26.621094 20.128906 26.640625 20.097656 26.660156 20.0625 Z M 28.539062 21.097656 " fill-opacity="1" fill-rule="nonzero"/><path fill="#cba6f7" d="M 5.9375 9.507812 C 5.921875 9.539062 5.90625 9.574219 5.890625 9.609375 L 3.945312 8.695312 C 3.960938 8.660156 3.976562 8.625 3.992188 8.589844 Z M 5.9375 9.507812 " fill-opacity="1" fill-rule="nonzero"/><path fill="#cba6f7" d="M 28.929688 20.324219 C 28.914062 20.359375 28.898438 20.394531 28.882812 20.429688 L 26.9375 19.511719 C 26.957031 19.480469 26.972656 19.445312 26.988281 19.410156 Z M 28.929688 20.324219 " fill-opacity="1" fill-rule="nonzero"/><path fill="#cba6f7" d="M 5.644531 10.175781 C 5.628906 10.210938 5.617188 10.246094 5.601562 10.28125 L 3.605469 9.488281 C 3.617188 9.453125 3.632812 9.417969 3.648438 9.382812 Z M 5.644531 10.175781 " fill-opacity="1" fill-rule="nonzero"/><path fill="#cba6f7" d="M 29.273438 19.53125 C 29.257812 19.566406 29.246094 19.601562 29.230469 19.636719 L 27.234375 18.84375 C 27.246094 18.808594 27.261719 18.773438 27.273438 18.738281 Z M 29.273438 19.53125 " fill-opacity="1" fill-rule="nonzero"/><path fill="#cba6f7" d="M 5.394531 10.859375 C 5.382812 10.898438 5.371094 10.933594 5.359375 10.96875 L 3.316406 10.304688 C 3.324219 10.269531 3.339844 10.234375 3.351562 10.199219 Z M 5.394531 10.859375 " fill-opacity="1" fill-rule="nonzero"/><path fill="#cba6f7" d="M 29.5625 18.714844 C 29.550781 18.75 29.539062 18.785156 29.527344 18.824219 L 27.484375 18.160156 C 27.496094 18.125 27.507812 18.085938 27.519531 18.050781 Z M 29.5625 18.714844 " fill-opacity="1" fill-rule="nonzero"/><path fill="#cba6f7" d="M 5.1875 11.5625 C 5.175781 11.597656 5.167969 11.636719 5.15625 11.671875 L 3.078125 11.136719 C 3.085938 11.101562 3.09375 11.066406 3.105469 11.027344 Z M 5.1875 11.5625 " fill-opacity="1" fill-rule="nonzero"/><path fill="#cba6f7" d="M 29.800781 17.882812 C 29.789062 17.917969 29.78125 17.957031 29.773438 17.992188 L 27.691406 17.457031 C 27.699219 17.421875 27.710938 17.386719 27.71875 17.347656 Z M 29.800781 17.882812 " fill-opacity="1" fill-rule="nonzero"/><g clip-path="url(#b05c0533ce)"><path fill="#cba6f7" d="M 5.023438 12.273438 C 5.015625 12.3125 5.007812 12.347656 5.003906 12.386719 L 2.890625 11.984375 C 2.898438 11.945312 2.90625 11.910156 2.914062 11.871094 Z M 5.023438 12.273438 " fill-opacity="1" fill-rule="nonzero"/></g><path fill="#cba6f7" d="M 29.984375 17.035156 C 29.976562 17.074219 29.96875 17.109375 29.964844 17.148438 L 27.851562 16.746094 C 27.859375 16.707031 27.867188 16.671875 27.875 16.632812 Z M 29.984375 17.035156 " fill-opacity="1" fill-rule="nonzero"/><g clip-path="url(#fdd71ab0bc)"><path fill="#cba6f7" d="M 4.90625 12.996094 C 4.902344 13.035156 4.898438 13.070312 4.894531 13.109375 L 2.761719 12.839844 C 2.765625 12.800781 2.769531 12.765625 2.777344 12.726562 Z M 4.90625 12.996094 " fill-opacity="1" fill-rule="nonzero"/></g><g clip-path="url(#aaa19d2eb6)"><path fill="#cba6f7" d="M 30.113281 16.179688 C 30.109375 16.21875 30.105469 16.253906 30.101562 16.292969 L 27.96875 16.023438 C 27.976562 15.988281 27.980469 15.949219 27.984375 15.910156 Z M 30.113281 16.179688 " fill-opacity="1" fill-rule="nonzero"/></g><g clip-path="url(#f7fefa784f)"><path fill="#cba6f7" d="M 4.835938 13.722656 C 4.832031 13.761719 4.832031 13.796875 4.828125 13.835938 L 2.683594 13.703125 C 2.6875 13.664062 2.6875 13.625 2.691406 13.589844 Z M 4.835938 13.722656 " fill-opacity="1" fill-rule="nonzero"/></g><g clip-path="url(#fdf9ecf6ce)"><path fill="#cba6f7" d="M 30.191406 15.320312 C 30.1875 15.355469 30.1875 15.394531 30.183594 15.433594 L 28.042969 15.296875 C 28.042969 15.257812 28.046875 15.222656 28.046875 15.183594 Z M 30.191406 15.320312 " fill-opacity="1" fill-rule="nonzero"/></g><g clip-path="url(#60608a4d42)"><path fill="#cba6f7" d="M 4.808594 14.511719 C 4.808594 14.527344 4.808594 14.546875 4.808594 14.566406 L 2.660156 14.566406 C 2.660156 14.546875 2.660156 14.527344 2.660156 14.511719 C 2.660156 14.492188 2.660156 14.472656 2.660156 14.453125 L 4.808594 14.453125 C 4.808594 14.472656 4.808594 14.492188 4.808594 14.511719 Z M 4.808594 14.511719 " fill-opacity="1" fill-rule="nonzero"/></g><g clip-path="url(#efd34b2147)"><path fill="#cba6f7" d="M 30.214844 14.511719 C 30.214844 14.527344 30.214844 14.546875 30.214844 14.566406 L 28.066406 14.566406 C 28.066406 14.546875 28.066406 14.527344 28.066406 14.511719 C 28.066406 14.492188 28.066406 14.472656 28.066406 14.453125 L 30.214844 14.453125 C 30.214844 14.472656 30.214844 14.492188 30.214844 14.511719 Z M 30.214844 14.511719 " fill-opacity="1" fill-rule="nonzero"/></g><g clip-path="url(#4c1b5a7ce3)"><path fill="#cba6f7" d="M 4.835938 15.296875 L 2.691406 15.433594 C 2.6875 15.394531 2.6875 15.355469 2.683594 15.320312 L 4.828125 15.183594 C 4.832031 15.222656 4.832031 15.257812 4.835938 15.296875 Z M 4.835938 15.296875 " fill-opacity="1" fill-rule="nonzero"/></g><g clip-path="url(#289e8c20b7)"><path fill="#cba6f7" d="M 30.191406 13.703125 L 28.046875 13.835938 C 28.046875 13.796875 28.042969 13.761719 28.042969 13.722656 L 30.183594 13.589844 C 30.1875 13.625 30.1875 13.664062 30.191406 13.703125 Z M 30.191406 13.703125 " fill-opacity="1" fill-rule="nonzero"/></g><g clip-path="url(#72dbbde117)"><path fill="#cba6f7" d="M 4.90625 16.023438 L 2.777344 16.292969 C 2.769531 16.253906 2.765625 16.21875 2.761719 16.179688 L 4.894531 15.910156 C 4.898438 15.949219 4.902344 15.988281 4.90625 16.023438 Z M 4.90625 16.023438 " fill-opacity="1" fill-rule="nonzero"/></g><g clip-path="url(#5eaeb8614d)"><path fill="#cba6f7" d="M 30.113281 12.839844 L 27.984375 13.109375 C 27.980469 13.070312 27.976562 13.035156 27.96875 12.996094 L 30.101562 12.726562 C 30.105469 12.765625 30.109375 12.800781 30.113281 12.839844 Z M 30.113281 12.839844 " fill-opacity="1" fill-rule="nonzero"/></g><g clip-path="url(#9afe09aac2)"><path fill="#cba6f7" d="M 5.023438 16.746094 L 2.914062 17.148438 C 2.90625 17.109375 2.898438 17.074219 2.890625 17.035156 L 5.003906 16.632812 C 5.007812 16.671875 5.015625 16.707031 5.023438 16.746094 Z M 5.023438 16.746094 " fill-opacity="1" fill-rule="nonzero"/></g><path fill="#cba6f7" d="M 29.984375 11.984375 L 27.875 12.386719 C 27.867188 12.347656 27.859375 12.3125 27.851562 12.273438 L 29.964844 11.871094 C 29.96875 11.910156 29.976562 11.945312 29.984375 11.984375 Z M 29.984375 11.984375 " fill-opacity="1" fill-rule="nonzero"/><path fill="#cba6f7" d="M 5.1875 17.457031 L 3.105469 17.992188 C 3.09375 17.957031 3.085938 17.917969 3.078125 17.882812 L 5.15625 17.347656 C 5.167969 17.386719 5.175781 17.421875 5.1875 17.457031 Z M 5.1875 17.457031 " fill-opacity="1" fill-rule="nonzero"/><path fill="#cba6f7" d="M 29.800781 11.136719 L 27.71875 11.671875 C 27.710938 11.636719 27.699219 11.597656 27.691406 11.5625 L 29.773438 11.027344 C 29.78125 11.066406 29.789062 11.101562 29.800781 11.136719 Z M 29.800781 11.136719 " fill-opacity="1" fill-rule="nonzero"/><path fill="#cba6f7" d="M 5.394531 18.160156 L 3.351562 18.824219 C 3.339844 18.785156 3.324219 18.75 3.316406 18.714844 L 5.359375 18.050781 C 5.371094 18.085938 5.382812 18.125 5.394531 18.160156 Z M 5.394531 18.160156 " fill-opacity="1" fill-rule="nonzero"/><path fill="#cba6f7" d="M 29.5625 10.304688 L 27.519531 10.96875 C 27.507812 10.933594 27.496094 10.898438 27.484375 10.859375 L 29.527344 10.199219 C 29.539062 10.234375 29.550781 10.269531 29.5625 10.304688 Z M 29.5625 10.304688 " fill-opacity="1" fill-rule="nonzero"/><path fill="#cba6f7" d="M 5.644531 18.84375 L 3.648438 19.636719 C 3.632812 19.601562 3.617188 19.566406 3.605469 19.53125 L 5.601562 18.738281 C 5.617188 18.773438 5.628906 18.808594 5.644531 18.84375 Z M 5.644531 18.84375 " fill-opacity="1" fill-rule="nonzero"/><path fill="#cba6f7" d="M 29.273438 9.488281 L 27.273438 10.28125 C 27.261719 10.246094 27.246094 10.210938 27.234375 10.175781 L 29.230469 9.382812 C 29.246094 9.417969 29.257812 9.453125 29.273438 9.488281 Z M 29.273438 9.488281 " fill-opacity="1" fill-rule="nonzero"/><path fill="#cba6f7" d="M 5.9375 19.511719 L 3.992188 20.429688 C 3.976562 20.394531 3.960938 20.359375 3.945312 20.324219 L 5.890625 19.410156 C 5.90625 19.445312 5.921875 19.480469 5.9375 19.511719 Z M 5.9375 19.511719 " fill-opacity="1" fill-rule="nonzero"/><path fill="#cba6f7" d="M 28.929688 8.695312 L 26.988281 9.609375 C 26.972656 9.574219 26.957031 9.539062 26.9375 9.507812 L 28.882812 8.589844 C 28.898438 8.625 28.914062 8.660156 28.929688 8.695312 Z M 28.929688 8.695312 " fill-opacity="1" fill-rule="nonzero"/><path fill="#cba6f7" d="M 6.273438 20.164062 L 4.390625 21.199219 C 4.371094 21.164062 4.355469 21.132812 4.335938 21.097656 L 6.21875 20.0625 C 6.234375 20.097656 6.253906 20.128906 6.273438 20.164062 Z M 6.273438 20.164062 " fill-opacity="1" fill-rule="nonzero"/><path fill="#cba6f7" d="M 28.539062 7.921875 L 26.660156 8.957031 C 26.640625 8.921875 26.621094 8.890625 26.601562 8.855469 L 28.484375 7.820312 C 28.503906 7.855469 28.523438 7.886719 28.539062 7.921875 Z M 28.539062 7.921875 " fill-opacity="1" fill-rule="nonzero"/><path fill="#cba6f7" d="M 6.648438 20.789062 L 4.835938 21.941406 C 4.8125 21.910156 4.792969 21.875 4.773438 21.84375 L 6.585938 20.695312 C 6.609375 20.726562 6.628906 20.757812 6.648438 20.789062 Z M 6.648438 20.789062 " fill-opacity="1" fill-rule="nonzero"/><path fill="#cba6f7" d="M 28.101562 7.175781 L 26.289062 8.324219 C 26.269531 8.292969 26.25 8.261719 26.226562 8.230469 L 28.042969 7.078125 C 28.0625 7.113281 28.082031 7.144531 28.101562 7.175781 Z M 28.101562 7.175781 " fill-opacity="1" fill-rule="nonzero"/><path fill="#cba6f7" d="M 7.0625 21.390625 L 5.324219 22.652344 C 5.300781 22.625 5.28125 22.59375 5.257812 22.5625 L 6.996094 21.300781 C 7.019531 21.332031 7.039062 21.363281 7.0625 21.390625 Z M 7.0625 21.390625 " fill-opacity="1" fill-rule="nonzero"/><path fill="#cba6f7" d="M 7.511719 21.964844 L 5.859375 23.335938 C 5.835938 23.304688 5.8125 23.277344 5.785156 23.25 L 7.441406 21.878906 C 7.464844 21.910156 7.488281 21.9375 7.511719 21.964844 Z M 7.511719 21.964844 " fill-opacity="1" fill-rule="nonzero"/><path fill="#cba6f7" d="M 8 22.511719 L 6.433594 23.980469 C 6.410156 23.953125 6.382812 23.925781 6.355469 23.898438 L 7.921875 22.429688 C 7.945312 22.457031 7.972656 22.484375 8 22.511719 Z M 8 22.511719 " fill-opacity="1" fill-rule="nonzero"/><path fill="#cba6f7" d="M 8.519531 23.027344 L 7.050781 24.589844 C 7.023438 24.566406 6.992188 24.539062 6.964844 24.511719 L 8.4375 22.949219 C 8.464844 22.976562 8.492188 23 8.519531 23.027344 Z M 8.519531 23.027344 " fill-opacity="1" fill-rule="nonzero"/><path fill="#cba6f7" d="M 9.070312 23.507812 L 7.699219 25.160156 C 7.671875 25.136719 7.640625 25.113281 7.613281 25.089844 L 8.980469 23.433594 C 9.011719 23.460938 9.039062 23.484375 9.070312 23.507812 Z M 9.070312 23.507812 " fill-opacity="1" fill-rule="nonzero"/><path fill="#cba6f7" d="M 9.648438 23.953125 L 8.386719 25.691406 C 8.355469 25.667969 8.324219 25.644531 8.292969 25.621094 L 9.558594 23.886719 C 9.585938 23.910156 9.617188 23.929688 9.648438 23.953125 Z M 9.648438 23.953125 " fill-opacity="1" fill-rule="nonzero"/><path fill="#cba6f7" d="M 10.253906 24.359375 L 9.105469 26.175781 C 9.070312 26.152344 9.039062 26.132812 9.007812 26.113281 L 10.15625 24.300781 C 10.191406 24.320312 10.222656 24.339844 10.253906 24.359375 Z M 10.253906 24.359375 " fill-opacity="1" fill-rule="nonzero"/><path fill="#cba6f7" d="M 10.886719 24.730469 L 9.851562 26.613281 C 9.816406 26.59375 9.785156 26.574219 9.75 26.558594 L 10.785156 24.675781 C 10.816406 24.695312 10.851562 24.710938 10.886719 24.730469 Z M 10.886719 24.730469 " fill-opacity="1" fill-rule="nonzero"/><path fill="#cba6f7" d="M 11.535156 25.058594 L 10.621094 27.003906 C 10.585938 26.988281 10.554688 26.96875 10.519531 26.953125 L 11.433594 25.011719 C 11.46875 25.027344 11.503906 25.042969 11.535156 25.058594 Z M 11.535156 25.058594 " fill-opacity="1" fill-rule="nonzero"/><path fill="#cba6f7" d="M 12.210938 25.347656 L 11.417969 27.34375 C 11.382812 27.328125 11.347656 27.316406 11.3125 27.300781 L 12.101562 25.304688 C 12.136719 25.320312 12.171875 25.332031 12.210938 25.347656 Z M 12.210938 25.347656 " fill-opacity="1" fill-rule="nonzero"/><path fill="#cba6f7" d="M 12.898438 25.589844 L 12.234375 27.632812 C 12.199219 27.621094 12.160156 27.609375 12.125 27.597656 L 12.789062 25.554688 C 12.824219 25.566406 12.859375 25.578125 12.898438 25.589844 Z M 12.898438 25.589844 " fill-opacity="1" fill-rule="nonzero"/><path fill="#cba6f7" d="M 13.601562 25.789062 L 13.066406 27.871094 C 13.03125 27.863281 12.992188 27.851562 12.957031 27.84375 L 13.492188 25.761719 C 13.527344 25.773438 13.5625 25.78125 13.601562 25.789062 Z M 13.601562 25.789062 " fill-opacity="1" fill-rule="nonzero"/><g clip-path="url(#25b9d3c9e2)"><path fill="#cba6f7" d="M 14.3125 25.945312 L 13.910156 28.054688 C 13.875 28.046875 13.835938 28.042969 13.800781 28.035156 L 14.203125 25.925781 C 14.238281 25.933594 14.277344 25.9375 14.3125 25.945312 Z M 14.3125 25.945312 " fill-opacity="1" fill-rule="nonzero"/></g><g clip-path="url(#f44d4e3cce)"><path fill="#cba6f7" d="M 15.035156 26.054688 L 14.769531 28.1875 C 14.730469 28.183594 14.691406 28.175781 14.65625 28.171875 L 14.925781 26.042969 C 14.960938 26.046875 15 26.050781 15.035156 26.054688 Z M 15.035156 26.054688 " fill-opacity="1" fill-rule="nonzero"/></g><g clip-path="url(#4808ba82cb)"><path fill="#cba6f7" d="M 15.765625 26.121094 L 15.628906 28.261719 C 15.59375 28.261719 15.554688 28.257812 15.515625 28.257812 L 15.652344 26.113281 C 15.6875 26.117188 15.726562 26.117188 15.765625 26.121094 Z M 15.765625 26.121094 " fill-opacity="1" fill-rule="nonzero"/></g><g clip-path="url(#84d2e49172)"><path fill="#f2cdcd" d="M 19.644531 20.273438 L 19.195312 20.273438 L 19.195312 17.339844 C 19.195312 17.160156 19.179688 16.984375 19.144531 16.808594 C 19.035156 16.265625 18.785156 15.800781 18.386719 15.414062 C 17.992188 15.027344 17.519531 14.785156 16.972656 14.691406 L 16.972656 14.480469 C 17.285156 14.425781 17.578125 14.320312 17.851562 14.160156 C 18.125 14.003906 18.363281 13.800781 18.566406 13.558594 C 18.769531 13.316406 18.925781 13.046875 19.035156 12.75 C 19.144531 12.453125 19.195312 12.144531 19.195312 11.828125 L 19.195312 8.894531 L 19.644531 8.894531 C 19.777344 8.898438 19.90625 8.875 20.03125 8.824219 C 20.15625 8.773438 20.265625 8.699219 20.363281 8.605469 C 20.457031 8.511719 20.53125 8.402344 20.582031 8.277344 C 20.636719 8.15625 20.660156 8.027344 20.660156 7.890625 C 20.660156 7.757812 20.636719 7.628906 20.582031 7.503906 C 20.53125 7.378906 20.457031 7.269531 20.363281 7.175781 C 20.265625 7.082031 20.15625 7.007812 20.03125 6.960938 C 19.90625 6.910156 19.777344 6.886719 19.644531 6.886719 L 13.371094 6.886719 C 13.238281 6.886719 13.109375 6.910156 12.984375 6.960938 C 12.859375 7.007812 12.75 7.082031 12.652344 7.175781 C 12.558594 7.269531 12.484375 7.378906 12.433594 7.503906 C 12.378906 7.628906 12.355469 7.757812 12.355469 7.890625 C 12.355469 8.027344 12.378906 8.15625 12.433594 8.277344 C 12.484375 8.402344 12.558594 8.511719 12.652344 8.605469 C 12.75 8.699219 12.859375 8.773438 12.984375 8.824219 C 13.109375 8.875 13.238281 8.898438 13.371094 8.894531 L 13.820312 8.894531 L 13.820312 11.828125 C 13.820312 12.144531 13.871094 12.453125 13.980469 12.75 C 14.089844 13.046875 14.246094 13.316406 14.449219 13.558594 C 14.652344 13.800781 14.890625 14.003906 15.164062 14.160156 C 15.4375 14.320312 15.730469 14.425781 16.042969 14.480469 L 16.042969 14.691406 C 15.730469 14.746094 15.4375 14.851562 15.164062 15.007812 C 14.890625 15.167969 14.652344 15.367188 14.449219 15.609375 C 14.246094 15.851562 14.089844 16.121094 13.980469 16.417969 C 13.875 16.714844 13.820312 17.023438 13.820312 17.339844 L 13.820312 20.273438 L 13.371094 20.273438 C 13.238281 20.269531 13.109375 20.296875 12.984375 20.34375 C 12.859375 20.394531 12.75 20.46875 12.652344 20.5625 C 12.558594 20.65625 12.484375 20.765625 12.433594 20.890625 C 12.378906 21.015625 12.355469 21.144531 12.355469 21.277344 C 12.355469 21.410156 12.378906 21.542969 12.433594 21.664062 C 12.484375 21.789062 12.558594 21.898438 12.652344 21.992188 C 12.75 22.085938 12.859375 22.160156 12.984375 22.210938 C 13.109375 22.261719 13.238281 22.285156 13.371094 22.28125 L 19.644531 22.28125 C 19.777344 22.285156 19.90625 22.261719 20.03125 22.210938 C 20.15625 22.160156 20.265625 22.085938 20.363281 21.992188 C 20.457031 21.898438 20.53125 21.789062 20.582031 21.664062 C 20.636719 21.542969 20.660156 21.410156 20.660156 21.277344 C 20.660156 21.144531 20.636719 21.015625 20.582031 20.890625 C 20.53125 20.765625 20.457031 20.65625 20.363281 20.5625 C 20.265625 20.46875 20.15625 20.394531 20.03125 20.34375 C 19.90625 20.296875 19.777344 20.269531 19.644531 20.273438 Z M 12.710938 7.890625 C 12.710938 7.710938 12.777344 7.554688 12.90625 7.425781 C 13.035156 7.296875 13.191406 7.230469 13.371094 7.230469 L 19.644531 7.230469 C 19.828125 7.226562 19.988281 7.292969 20.117188 7.421875 C 20.25 7.550781 20.316406 7.707031 20.316406 7.890625 C 20.316406 8.078125 20.25 8.234375 20.117188 8.363281 C 19.988281 8.492188 19.828125 8.554688 19.644531 8.554688 L 13.371094 8.554688 C 13.191406 8.554688 13.035156 8.488281 12.90625 8.359375 C 12.777344 8.230469 12.710938 8.074219 12.710938 7.890625 Z M 18.847656 17.234375 C 18.847656 17.269531 18.851562 17.304688 18.851562 17.339844 L 18.851562 20.269531 L 14.164062 20.269531 L 14.164062 19.273438 C 15.050781 19.261719 15.898438 19.082031 16.710938 18.726562 C 17.523438 18.375 18.238281 17.878906 18.847656 17.234375 Z M 18.851562 10.878906 C 18.128906 11.179688 17.371094 11.335938 16.585938 11.34375 C 15.746094 11.355469 14.9375 11.199219 14.164062 10.878906 L 14.164062 8.898438 L 18.851562 8.898438 Z M 16.234375 15.011719 C 16.335938 15 16.386719 14.941406 16.386719 14.839844 L 16.386719 14.332031 C 16.386719 14.230469 16.335938 14.171875 16.234375 14.160156 C 15.949219 14.128906 15.679688 14.042969 15.421875 13.910156 C 15.167969 13.777344 14.945312 13.605469 14.753906 13.390625 C 14.5625 13.175781 14.417969 12.933594 14.316406 12.664062 C 14.214844 12.394531 14.164062 12.117188 14.164062 11.828125 L 14.164062 11.25 C 14.917969 11.539062 15.699219 11.6875 16.511719 11.6875 L 16.589844 11.6875 C 17.371094 11.679688 18.125 11.53125 18.851562 11.25 L 18.851562 11.828125 C 18.851562 12.117188 18.800781 12.394531 18.699219 12.664062 C 18.597656 12.933594 18.453125 13.175781 18.261719 13.390625 C 18.070312 13.605469 17.847656 13.777344 17.59375 13.910156 C 17.335938 14.042969 17.066406 14.128906 16.78125 14.160156 C 16.679688 14.171875 16.628906 14.230469 16.628906 14.332031 L 16.628906 14.839844 C 16.628906 14.941406 16.679688 15 16.78125 15.011719 C 17.269531 15.066406 17.699219 15.257812 18.066406 15.585938 C 18.4375 15.914062 18.675781 16.320312 18.789062 16.800781 C 18.78125 16.800781 18.777344 16.804688 18.773438 16.808594 C 18.191406 17.472656 17.496094 17.988281 16.695312 18.359375 C 15.890625 18.726562 15.046875 18.917969 14.164062 18.929688 L 14.164062 17.339844 C 14.164062 17.050781 14.214844 16.773438 14.316406 16.503906 C 14.417969 16.238281 14.5625 15.996094 14.753906 15.78125 C 14.945312 15.566406 15.167969 15.390625 15.425781 15.257812 C 15.679688 15.125 15.949219 15.042969 16.234375 15.011719 Z M 19.644531 21.9375 L 13.371094 21.9375 C 13.1875 21.941406 13.03125 21.878906 12.898438 21.75 C 12.765625 21.617188 12.699219 21.460938 12.699219 21.277344 C 12.699219 21.09375 12.765625 20.933594 12.898438 20.804688 C 13.03125 20.675781 13.1875 20.613281 13.371094 20.617188 L 19.644531 20.617188 C 19.828125 20.613281 19.988281 20.675781 20.117188 20.804688 C 20.25 20.933594 20.316406 21.09375 20.316406 21.277344 C 20.316406 21.460938 20.25 21.617188 20.117188 21.75 C 19.988281 21.878906 19.828125 21.941406 19.644531 21.9375 Z M 16.335938 16.480469 L 16.335938 15.878906 C 16.335938 15.761719 16.394531 15.707031 16.507812 15.707031 C 16.621094 15.707031 16.679688 15.761719 16.679688 15.878906 L 16.679688 16.480469 C 16.679688 16.597656 16.621094 16.652344 16.507812 16.652344 C 16.394531 16.652344 16.335938 16.597656 16.335938 16.480469 Z M 15.683594 16.839844 L 15.683594 16.179688 C 15.683594 16.066406 15.742188 16.007812 15.855469 16.007812 C 15.96875 16.007812 16.027344 16.066406 16.027344 16.179688 L 16.027344 16.839844 C 16.027344 16.957031 15.96875 17.011719 15.855469 17.011719 C 15.742188 17.011719 15.683594 16.957031 15.683594 16.839844 Z M 16.859375 17.53125 L 16.859375 17.050781 C 16.859375 16.933594 16.917969 16.878906 17.03125 16.878906 C 17.148438 16.878906 17.203125 16.933594 17.203125 17.050781 L 17.203125 17.53125 C 17.203125 17.648438 17.148438 17.703125 17.03125 17.703125 C 16.917969 17.703125 16.859375 17.648438 16.859375 17.53125 Z M 15.683594 18.074219 L 15.683594 17.742188 C 15.683594 17.625 15.742188 17.570312 15.855469 17.570312 C 15.96875 17.570312 16.027344 17.625 16.027344 17.742188 L 16.027344 18.074219 C 16.027344 18.1875 15.96875 18.246094 15.855469 18.246094 C 15.742188 18.246094 15.683594 18.1875 15.683594 18.074219 Z M 15.683594 18.074219 " fill-opacity="1" fill-rule="nonzero"/></g><g fill="#cdd6f4" fill-opacity="1"><g transform="translate(30.953288, 13.064518)"><g><path d="M 5.65625 -5.921875 L 3.546875 -5.921875 L 3.546875 0 L 2.25 0 L 2.25 -5.921875 L 0.140625 -5.921875 L 0.140625 -7 L 5.65625 -7 Z M 5.65625 -5.921875 "/></g></g></g><g fill="#cdd6f4" fill-opacity="1"><g transform="translate(36.757447, 13.064518)"><g><path d="M 2.078125 0 L 0.78125 0 L 0.78125 -7 L 2.078125 -7 Z M 2.078125 0 "/></g></g></g><g fill="#cdd6f4" fill-opacity="1"><g transform="translate(39.625665, 13.064518)"><g><path d="M 8.359375 -7 L 8.359375 0 L 7.21875 0 L 7.21875 -4.515625 C 7.21875 -4.691406 7.226562 -4.890625 7.25 -5.109375 L 5.125 -1.125 C 5.03125 -0.9375 4.878906 -0.84375 4.671875 -0.84375 L 4.484375 -0.84375 C 4.273438 -0.84375 4.125 -0.9375 4.03125 -1.125 L 1.890625 -5.109375 C 1.898438 -5.003906 1.90625 -4.898438 1.90625 -4.796875 C 1.914062 -4.691406 1.921875 -4.597656 1.921875 -4.515625 L 1.921875 0 L 0.78125 0 L 0.78125 -7 L 1.765625 -7 C 1.816406 -7 1.863281 -6.992188 1.90625 -6.984375 C 1.945312 -6.984375 1.984375 -6.972656 2.015625 -6.953125 C 2.054688 -6.941406 2.085938 -6.921875 2.109375 -6.890625 C 2.140625 -6.867188 2.171875 -6.832031 2.203125 -6.78125 L 4.296875 -2.90625 C 4.347656 -2.800781 4.394531 -2.691406 4.4375 -2.578125 C 4.488281 -2.472656 4.535156 -2.363281 4.578125 -2.25 C 4.617188 -2.363281 4.664062 -2.472656 4.71875 -2.578125 C 4.769531 -2.691406 4.820312 -2.800781 4.875 -2.90625 L 6.9375 -6.78125 C 6.96875 -6.832031 6.992188 -6.867188 7.015625 -6.890625 C 7.046875 -6.921875 7.078125 -6.941406 7.109375 -6.953125 C 7.148438 -6.972656 7.191406 -6.984375 7.234375 -6.984375 C 7.273438 -6.992188 7.320312 -7 7.375 -7 Z M 8.359375 -7 "/></g></g></g><g fill="#cdd6f4" fill-opacity="1"><g transform="translate(48.76722, 13.064518)"><g><path d="M 2.078125 -5.953125 L 2.078125 -4.015625 L 4.53125 -4.015625 L 4.53125 -3.015625 L 2.078125 -3.015625 L 2.078125 -1.046875 L 5.1875 -1.046875 L 5.1875 0 L 0.78125 0 L 0.78125 -7 L 5.1875 -7 L 5.1875 -5.953125 Z M 2.078125 -5.953125 "/></g></g></g><g fill="#cdd6f4" fill-opacity="1"><g transform="translate(30.953288, 22.500002)"><g><path d="M 2.890625 -3.671875 C 3.140625 -3.671875 3.351562 -3.695312 3.53125 -3.75 C 3.71875 -3.8125 3.867188 -3.894531 3.984375 -4 C 4.097656 -4.113281 4.179688 -4.242188 4.234375 -4.390625 C 4.296875 -4.546875 4.328125 -4.710938 4.328125 -4.890625 C 4.328125 -5.242188 4.207031 -5.515625 3.96875 -5.703125 C 3.738281 -5.890625 3.382812 -5.984375 2.90625 -5.984375 L 2.078125 -5.984375 L 2.078125 -3.671875 Z M 6.234375 0 L 5.0625 0 C 4.84375 0 4.679688 -0.0859375 4.578125 -0.265625 L 3.109375 -2.5 C 3.054688 -2.582031 2.992188 -2.640625 2.921875 -2.671875 C 2.859375 -2.710938 2.765625 -2.734375 2.640625 -2.734375 L 2.078125 -2.734375 L 2.078125 0 L 0.78125 0 L 0.78125 -7 L 2.90625 -7 C 3.382812 -7 3.789062 -6.945312 4.125 -6.84375 C 4.46875 -6.75 4.75 -6.613281 4.96875 -6.4375 C 5.1875 -6.257812 5.347656 -6.046875 5.453125 -5.796875 C 5.554688 -5.546875 5.609375 -5.273438 5.609375 -4.984375 C 5.609375 -4.742188 5.570312 -4.519531 5.5 -4.3125 C 5.425781 -4.101562 5.320312 -3.910156 5.1875 -3.734375 C 5.0625 -3.566406 4.898438 -3.414062 4.703125 -3.28125 C 4.515625 -3.15625 4.300781 -3.054688 4.0625 -2.984375 C 4.144531 -2.941406 4.222656 -2.882812 4.296875 -2.8125 C 4.367188 -2.75 4.429688 -2.671875 4.484375 -2.578125 Z M 6.234375 0 "/></g></g></g><g fill="#cdd6f4" fill-opacity="1"><g transform="translate(37.17341, 22.500002)"><g><path d="M 4.46875 -2.640625 L 3.625 -4.96875 C 3.582031 -5.070312 3.535156 -5.191406 3.484375 -5.328125 C 3.441406 -5.472656 3.398438 -5.628906 3.359375 -5.796875 C 3.316406 -5.628906 3.269531 -5.472656 3.21875 -5.328125 C 3.175781 -5.179688 3.132812 -5.054688 3.09375 -4.953125 L 2.25 -2.640625 Z M 6.765625 0 L 5.765625 0 C 5.648438 0 5.554688 -0.0234375 5.484375 -0.078125 C 5.410156 -0.140625 5.359375 -0.210938 5.328125 -0.296875 L 4.8125 -1.71875 L 1.90625 -1.71875 L 1.390625 -0.296875 C 1.359375 -0.222656 1.304688 -0.15625 1.234375 -0.09375 C 1.160156 -0.03125 1.070312 0 0.96875 0 L -0.046875 0 L 2.703125 -7 L 4.015625 -7 Z M 6.765625 0 "/></g></g></g><g fill="#cdd6f4" fill-opacity="1"><g transform="translate(43.891727, 22.500002)"><g><path d="M 6.765625 -7 L 3.953125 0 L 2.765625 0 L -0.046875 -7 L 0.984375 -7 C 1.097656 -7 1.191406 -6.96875 1.265625 -6.90625 C 1.335938 -6.851562 1.390625 -6.785156 1.421875 -6.703125 L 3.078125 -2.4375 C 3.128906 -2.289062 3.179688 -2.132812 3.234375 -1.96875 C 3.285156 -1.800781 3.332031 -1.628906 3.375 -1.453125 C 3.414062 -1.628906 3.457031 -1.800781 3.5 -1.96875 C 3.539062 -2.132812 3.59375 -2.289062 3.65625 -2.4375 L 5.296875 -6.703125 C 5.316406 -6.773438 5.363281 -6.84375 5.4375 -6.90625 C 5.519531 -6.96875 5.613281 -7 5.71875 -7 Z M 6.765625 -7 "/></g></g></g><g fill="#cdd6f4" fill-opacity="1"><g transform="translate(50.610044, 22.500002)"><g><path d="M 2.078125 -5.953125 L 2.078125 -4.015625 L 4.53125 -4.015625 L 4.53125 -3.015625 L 2.078125 -3.015625 L 2.078125 -1.046875 L 5.1875 -1.046875 L 5.1875 0 L 0.78125 0 L 0.78125 -7 L 5.1875 -7 L 5.1875 -5.953125 Z M 2.078125 -5.953125 "/></g></g></g><g fill="#cdd6f4" fill-opacity="1"><g transform="translate(56.172371, 22.500002)"><g><path d="M 4.875 -1.078125 L 4.875 0 L 0.78125 0 L 0.78125 -7 L 2.078125 -7 L 2.078125 -1.078125 Z M 4.875 -1.078125 "/></g></g></g><g fill="#cdd6f4" fill-opacity="1"><g transform="translate(61.197808, 22.500002)"><g><path d="M 2.078125 -5.953125 L 2.078125 -4.015625 L 4.53125 -4.015625 L 4.53125 -3.015625 L 2.078125 -3.015625 L 2.078125 -1.046875 L 5.1875 -1.046875 L 5.1875 0 L 0.78125 0 L 0.78125 -7 L 5.1875 -7 L 5.1875 -5.953125 Z M 2.078125 -5.953125 "/></g></g></g><g clip-path="url(#67530a8daa)"><g fill="#cdd6f4" fill-opacity="1"><g transform="translate(66.760135, 22.500002)"><g><path d="M 2.890625 -3.671875 C 3.140625 -3.671875 3.351562 -3.695312 3.53125 -3.75 C 3.71875 -3.8125 3.867188 -3.894531 3.984375 -4 C 4.097656 -4.113281 4.179688 -4.242188 4.234375 -4.390625 C 4.296875 -4.546875 4.328125 -4.710938 4.328125 -4.890625 C 4.328125 -5.242188 4.207031 -5.515625 3.96875 -5.703125 C 3.738281 -5.890625 3.382812 -5.984375 2.90625 -5.984375 L 2.078125 -5.984375 L 2.078125 -3.671875 Z M 6.234375 0 L 5.0625 0 C 4.84375 0 4.679688 -0.0859375 4.578125 -0.265625 L 3.109375 -2.5 C 3.054688 -2.582031 2.992188 -2.640625 2.921875 -2.671875 C 2.859375 -2.710938 2.765625 -2.734375 2.640625 -2.734375 L 2.078125 -2.734375 L 2.078125 0 L 0.78125 0 L 0.78125 -7 L 2.90625 -7 C 3.382812 -7 3.789062 -6.945312 4.125 -6.84375 C 4.46875 -6.75 4.75 -6.613281 4.96875 -6.4375 C 5.1875 -6.257812 5.347656 -6.046875 5.453125 -5.796875 C 5.554688 -5.546875 5.609375 -5.273438 5.609375 -4.984375 C 5.609375 -4.742188 5.570312 -4.519531 5.5 -4.3125 C 5.425781 -4.101562 5.320312 -3.910156 5.1875 -3.734375 C 5.0625 -3.566406 4.898438 -3.414062 4.703125 -3.28125 C 4.515625 -3.15625 4.300781 -3.054688 4.0625 -2.984375 C 4.144531 -2.941406 4.222656 -2.882812 4.296875 -2.8125 C 4.367188 -2.75 4.429688 -2.671875 4.484375 -2.578125 Z M 6.234375 0 "/></g></g></g></g></svg>