<svg xmlns="http://www.w3.org/2000/svg" xmlns:xlink="http://www.w3.org/1999/xlink" width="64" zoomAndPan="magnify" viewBox="0 0 48 48" height="64" preserveAspectRatio="xMidYMid meet" version="1.0"><defs><clipPath id="80a4b43b09"><path d="M 2.824219 2.335938 L 44.234375 2.335938 L 44.234375 43.746094 L 2.824219 43.746094 Z M 2.824219 2.335938 " clip-rule="nonzero"/></clipPath><clipPath id="220fe004cd"><path d="M 23.527344 2.335938 C 12.09375 2.335938 2.824219 11.605469 2.824219 23.039062 C 2.824219 34.472656 12.09375 43.746094 23.527344 43.746094 C 34.964844 43.746094 44.234375 34.472656 44.234375 23.039062 C 44.234375 11.605469 34.964844 2.335938 23.527344 2.335938 Z M 23.527344 2.335938 " clip-rule="nonzero"/></clipPath><clipPath id="973a0e6dce"><path d="M 0.488281 0 L 47.507812 0 L 47.507812 47.019531 L 0.488281 47.019531 Z M 0.488281 0 " clip-rule="nonzero"/></clipPath><clipPath id="6a95308055"><path d="M 23 43 L 25 43 L 25 47.019531 L 23 47.019531 Z M 23 43 " clip-rule="nonzero"/></clipPath><clipPath id="4a4b958b6f"><path d="M 0.488281 19 L 5 19 L 5 20 L 0.488281 20 Z M 0.488281 19 " clip-rule="nonzero"/></clipPath><clipPath id="24df7631db"><path d="M 43 27 L 47.507812 27 L 47.507812 29 L 43 29 Z M 43 27 " clip-rule="nonzero"/></clipPath><clipPath id="9278612d0b"><path d="M 0.488281 20 L 5 20 L 5 22 L 0.488281 22 Z M 0.488281 20 " clip-rule="nonzero"/></clipPath><clipPath id="c922f10401"><path d="M 43 25 L 47.507812 25 L 47.507812 27 L 43 27 Z M 43 25 " clip-rule="nonzero"/></clipPath><clipPath id="5b5142df98"><path d="M 0.488281 21 L 5 21 L 5 23 L 0.488281 23 Z M 0.488281 21 " clip-rule="nonzero"/></clipPath><clipPath id="31bbbc2b42"><path d="M 43 24 L 47.507812 24 L 47.507812 26 L 43 26 Z M 43 24 " clip-rule="nonzero"/></clipPath><clipPath id="878040ede9"><path d="M 0.488281 23 L 5 23 L 5 24 L 0.488281 24 Z M 0.488281 23 " clip-rule="nonzero"/></clipPath><clipPath id="b170a78bae"><path d="M 43 23 L 47.507812 23 L 47.507812 24 L 43 24 Z M 43 23 " clip-rule="nonzero"/></clipPath><clipPath id="82be037780"><path d="M 0.488281 24 L 5 24 L 5 26 L 0.488281 26 Z M 0.488281 24 " clip-rule="nonzero"/></clipPath><clipPath id="27a44ac8d0"><path d="M 43 21 L 47.507812 21 L 47.507812 23 L 43 23 Z M 43 21 " clip-rule="nonzero"/></clipPath><clipPath id="a378314098"><path d="M 0.488281 25 L 5 25 L 5 27 L 0.488281 27 Z M 0.488281 25 " clip-rule="nonzero"/></clipPath><clipPath id="2f4a76d675"><path d="M 43 20 L 47.507812 20 L 47.507812 22 L 43 22 Z M 43 20 " clip-rule="nonzero"/></clipPath><clipPath id="7c1abbc13b"><path d="M 0.488281 27 L 5 27 L 5 29 L 0.488281 29 Z M 0.488281 27 " clip-rule="nonzero"/></clipPath><clipPath id="a3bbb2dd78"><path d="M 43 19 L 47.507812 19 L 47.507812 20 L 43 20 Z M 43 19 " clip-rule="nonzero"/></clipPath><clipPath id="2c9fa403c9"><path d="M 16.359375 9.851562 L 31 9.851562 L 31 36.300781 L 16.359375 36.300781 Z M 16.359375 9.851562 " clip-rule="nonzero"/></clipPath></defs><g clip-path="url(#80a4b43b09)"><g clip-path="url(#220fe004cd)"><path fill="#1e1e2e" d="M 2.824219 2.335938 L 44.234375 2.335938 L 44.234375 43.746094 L 2.824219 43.746094 Z M 2.824219 2.335938 " fill-opacity="1" fill-rule="nonzero"/></g></g><g clip-path="url(#973a0e6dce)"><path fill="#cba6f7" d="M 43.074219 9.769531 C 43.324219 10.113281 43.566406 10.46875 43.796875 10.828125 C 43.832031 10.882812 43.867188 10.9375 43.902344 10.992188 C 44.128906 11.355469 44.347656 11.722656 44.554688 12.097656 C 44.585938 12.152344 44.617188 12.210938 44.648438 12.265625 C 44.855469 12.640625 45.046875 13.023438 45.230469 13.410156 C 45.261719 13.46875 45.289062 13.523438 45.316406 13.585938 C 45.496094 13.972656 45.664062 14.363281 45.824219 14.761719 C 45.847656 14.820312 45.875 14.882812 45.898438 14.941406 C 46.050781 15.339844 46.195312 15.742188 46.332031 16.148438 C 46.351562 16.210938 46.371094 16.273438 46.390625 16.332031 C 46.519531 16.738281 46.640625 17.152344 46.75 17.566406 C 46.765625 17.628906 46.78125 17.691406 46.796875 17.753906 C 46.898438 18.167969 46.992188 18.585938 47.074219 19.007812 L 47.113281 19.199219 C 47.191406 19.617188 47.257812 20.039062 47.3125 20.464844 C 47.320312 20.53125 47.328125 20.59375 47.335938 20.65625 C 47.386719 21.078125 47.425781 21.503906 47.453125 21.933594 C 47.457031 22 47.460938 22.0625 47.464844 22.128906 C 47.492188 22.554688 47.503906 22.980469 47.503906 23.410156 C 47.507812 23.445312 47.507812 23.476562 47.507812 23.507812 C 47.507812 23.539062 47.507812 23.574219 47.503906 23.605469 C 47.503906 24.035156 47.492188 24.464844 47.464844 24.886719 C 47.460938 24.953125 47.457031 25.015625 47.453125 25.082031 C 47.425781 25.511719 47.386719 25.9375 47.335938 26.359375 C 47.328125 26.421875 47.320312 26.484375 47.3125 26.550781 C 47.257812 26.976562 47.191406 27.398438 47.113281 27.820312 L 47.074219 28.007812 C 46.992188 28.429688 46.898438 28.847656 46.796875 29.261719 C 46.78125 29.324219 46.765625 29.386719 46.75 29.449219 C 46.640625 29.867188 46.519531 30.277344 46.390625 30.683594 C 46.371094 30.746094 46.351562 30.804688 46.332031 30.867188 C 46.195312 31.273438 46.050781 31.675781 45.898438 32.074219 C 45.875 32.132812 45.847656 32.195312 45.824219 32.253906 C 45.664062 32.652344 45.496094 33.046875 45.316406 33.433594 C 45.289062 33.492188 45.261719 33.550781 45.230469 33.605469 C 45.046875 33.992188 44.855469 34.375 44.648438 34.75 C 44.617188 34.804688 44.585938 34.863281 44.554688 34.921875 C 44.347656 35.292969 44.128906 35.660156 43.902344 36.023438 C 43.867188 36.078125 43.832031 36.132812 43.796875 36.1875 C 43.566406 36.546875 43.324219 36.902344 43.074219 37.246094 C 43.035156 37.300781 43 37.351562 42.960938 37.402344 C 42.707031 37.75 42.445312 38.089844 42.171875 38.417969 C 42.132812 38.46875 42.089844 38.519531 42.050781 38.566406 C 41.773438 38.894531 41.492188 39.214844 41.199219 39.527344 C 41.15625 39.574219 41.113281 39.625 41.066406 39.671875 C 40.773438 39.980469 40.472656 40.285156 40.160156 40.578125 C 40.113281 40.621094 40.066406 40.667969 40.019531 40.710938 C 39.707031 41 39.386719 41.285156 39.058594 41.558594 C 39.007812 41.601562 38.957031 41.640625 38.90625 41.683594 C 38.578125 41.953125 38.238281 42.21875 37.894531 42.46875 C 37.84375 42.507812 37.789062 42.546875 37.738281 42.585938 C 37.390625 42.835938 37.039062 43.074219 36.675781 43.308594 C 36.621094 43.34375 36.566406 43.375 36.511719 43.410156 C 36.152344 43.640625 35.785156 43.855469 35.410156 44.066406 C 35.351562 44.097656 35.296875 44.128906 35.238281 44.15625 C 34.863281 44.363281 34.484375 44.558594 34.097656 44.742188 C 34.039062 44.769531 33.980469 44.796875 33.921875 44.824219 C 33.535156 45.003906 33.140625 45.175781 32.742188 45.335938 C 32.683594 45.359375 32.625 45.382812 32.5625 45.40625 C 32.167969 45.5625 31.765625 45.707031 31.355469 45.839844 C 31.296875 45.863281 31.234375 45.882812 31.171875 45.902344 C 30.765625 46.03125 30.355469 46.152344 29.9375 46.257812 C 29.878906 46.273438 29.8125 46.292969 29.75 46.304688 C 29.335938 46.410156 28.921875 46.503906 28.5 46.585938 L 28.308594 46.621094 C 27.890625 46.699219 27.46875 46.765625 27.039062 46.820312 C 26.976562 46.828125 26.914062 46.835938 26.847656 46.84375 C 26.425781 46.894531 26 46.9375 25.570312 46.964844 C 25.507812 46.96875 25.441406 46.972656 25.378906 46.976562 C 24.953125 47 24.523438 47.015625 24.09375 47.015625 C 24.0625 47.015625 24.03125 47.015625 23.996094 47.015625 C 23.964844 47.015625 23.933594 47.015625 23.902344 47.015625 C 23.46875 47.015625 23.042969 47 22.617188 46.976562 C 22.554688 46.972656 22.488281 46.96875 22.425781 46.964844 C 21.996094 46.9375 21.570312 46.894531 21.148438 46.84375 C 21.082031 46.835938 21.019531 46.828125 20.957031 46.820312 C 20.527344 46.765625 20.105469 46.699219 19.6875 46.621094 L 19.496094 46.585938 C 19.074219 46.503906 18.65625 46.410156 18.242188 46.304688 C 18.183594 46.292969 18.117188 46.273438 18.054688 46.257812 C 17.640625 46.152344 17.230469 46.03125 16.824219 45.902344 C 16.761719 45.882812 16.699219 45.863281 16.640625 45.839844 C 16.230469 45.707031 15.828125 45.5625 15.433594 45.40625 C 15.371094 45.382812 15.3125 45.359375 15.253906 45.335938 C 14.851562 45.175781 14.460938 45.003906 14.074219 44.824219 C 14.015625 44.796875 13.957031 44.769531 13.898438 44.742188 C 13.511719 44.558594 13.132812 44.363281 12.757812 44.15625 C 12.699219 44.128906 12.644531 44.097656 12.585938 44.066406 C 12.210938 43.855469 11.84375 43.640625 11.484375 43.410156 C 11.429688 43.375 11.375 43.34375 11.320312 43.308594 C 10.957031 43.074219 10.605469 42.835938 10.257812 42.585938 C 10.207031 42.546875 10.152344 42.507812 10.101562 42.46875 C 9.757812 42.21875 9.417969 41.953125 9.085938 41.683594 C 9.039062 41.640625 8.988281 41.601562 8.9375 41.558594 C 8.609375 41.285156 8.289062 41 7.976562 40.710938 C 7.929688 40.667969 7.882812 40.621094 7.835938 40.578125 C 7.523438 40.285156 7.222656 39.980469 6.929688 39.671875 C 6.882812 39.625 6.839844 39.574219 6.796875 39.527344 C 6.503906 39.214844 6.222656 38.894531 5.945312 38.566406 C 5.90625 38.519531 5.863281 38.46875 5.824219 38.417969 C 5.550781 38.089844 5.289062 37.75 5.035156 37.402344 C 4.996094 37.351562 4.960938 37.300781 4.921875 37.246094 C 4.671875 36.902344 4.429688 36.546875 4.199219 36.1875 C 4.164062 36.132812 4.128906 36.078125 4.09375 36.023438 C 3.867188 35.660156 3.648438 35.292969 3.441406 34.921875 C 3.410156 34.863281 3.378906 34.804688 3.347656 34.75 C 3.140625 34.375 2.949219 33.992188 2.761719 33.605469 C 2.734375 33.550781 2.707031 33.492188 2.679688 33.433594 C 2.5 33.046875 2.332031 32.652344 2.171875 32.253906 C 2.144531 32.195312 2.121094 32.132812 2.097656 32.074219 C 1.945312 31.675781 1.796875 31.273438 1.664062 30.867188 C 1.644531 30.804688 1.625 30.746094 1.605469 30.683594 C 1.476562 30.277344 1.355469 29.867188 1.246094 29.449219 C 1.230469 29.386719 1.214844 29.324219 1.199219 29.261719 C 1.09375 28.847656 1.003906 28.429688 0.917969 28.007812 L 0.882812 27.820312 C 0.804688 27.398438 0.738281 26.976562 0.683594 26.550781 C 0.675781 26.484375 0.667969 26.421875 0.660156 26.359375 C 0.609375 25.9375 0.570312 25.511719 0.542969 25.082031 C 0.535156 25.015625 0.535156 24.953125 0.53125 24.886719 C 0.503906 24.464844 0.492188 24.035156 0.492188 23.605469 C 0.488281 23.574219 0.488281 23.539062 0.488281 23.507812 C 0.488281 23.476562 0.488281 23.445312 0.492188 23.410156 C 0.492188 22.980469 0.503906 22.554688 0.53125 22.128906 C 0.535156 22.0625 0.535156 22 0.542969 21.933594 C 0.570312 21.503906 0.609375 21.078125 0.660156 20.65625 C 0.667969 20.59375 0.675781 20.53125 0.683594 20.464844 C 0.738281 20.039062 0.804688 19.617188 0.882812 19.199219 L 0.917969 19.007812 C 1.003906 18.585938 1.09375 18.167969 1.199219 17.753906 C 1.214844 17.691406 1.230469 17.628906 1.246094 17.566406 C 1.355469 17.152344 1.476562 16.738281 1.605469 16.332031 C 1.625 16.273438 1.644531 16.210938 1.664062 16.148438 C 1.796875 15.742188 1.945312 15.339844 2.097656 14.941406 C 2.121094 14.882812 2.144531 14.820312 2.171875 14.761719 C 2.332031 14.363281 2.5 13.972656 2.679688 13.585938 C 2.707031 13.523438 2.734375 13.46875 2.761719 13.410156 C 2.949219 13.023438 3.140625 12.640625 3.347656 12.265625 C 3.378906 12.210938 3.410156 12.152344 3.441406 12.097656 C 3.648438 11.722656 3.867188 11.355469 4.09375 10.992188 C 4.128906 10.9375 4.164062 10.882812 4.199219 10.828125 C 4.429688 10.46875 4.671875 10.113281 4.921875 9.769531 C 4.960938 9.714844 4.996094 9.664062 5.035156 9.613281 C 5.289062 9.265625 5.550781 8.929688 5.824219 8.597656 C 5.863281 8.546875 5.90625 8.5 5.945312 8.449219 C 6.222656 8.121094 6.503906 7.800781 6.796875 7.488281 C 6.839844 7.441406 6.882812 7.394531 6.929688 7.347656 C 7.222656 7.035156 7.523438 6.734375 7.835938 6.4375 C 7.882812 6.394531 7.929688 6.351562 7.976562 6.304688 C 8.289062 6.015625 8.609375 5.730469 8.9375 5.457031 C 8.988281 5.414062 9.039062 5.375 9.085938 5.332031 C 9.417969 5.0625 9.757812 4.796875 10.101562 4.546875 C 10.152344 4.507812 10.207031 4.46875 10.257812 4.433594 C 10.605469 4.179688 10.957031 3.941406 11.320312 3.710938 C 11.375 3.675781 11.429688 3.640625 11.484375 3.605469 C 11.84375 3.378906 12.210938 3.160156 12.585938 2.953125 C 12.644531 2.917969 12.699219 2.886719 12.757812 2.859375 C 13.132812 2.652344 13.511719 2.457031 13.898438 2.273438 C 13.957031 2.246094 14.015625 2.21875 14.074219 2.191406 C 14.460938 2.011719 14.851562 1.839844 15.253906 1.683594 C 15.3125 1.65625 15.371094 1.632812 15.433594 1.609375 C 15.828125 1.453125 16.230469 1.308594 16.640625 1.175781 C 16.699219 1.15625 16.761719 1.132812 16.824219 1.113281 C 17.230469 0.984375 17.640625 0.863281 18.054688 0.757812 C 18.117188 0.742188 18.183594 0.726562 18.242188 0.710938 C 18.65625 0.605469 19.074219 0.511719 19.496094 0.429688 L 19.6875 0.394531 C 20.105469 0.316406 20.527344 0.25 20.957031 0.195312 C 21.019531 0.1875 21.082031 0.179688 21.148438 0.171875 C 21.570312 0.121094 21.996094 0.0820312 22.425781 0.0507812 C 22.488281 0.046875 22.554688 0.0429688 22.617188 0.0390625 C 23.042969 0.015625 23.46875 0.00390625 23.902344 0 C 23.933594 0 23.964844 0 23.996094 0 C 24.03125 0 24.0625 0 24.09375 0 L 24.09375 3.664062 C 24.0625 3.664062 24.03125 3.664062 23.996094 3.664062 C 23.964844 3.664062 23.933594 3.664062 23.902344 3.664062 C 23.546875 3.667969 23.195312 3.675781 22.847656 3.699219 C 22.785156 3.699219 22.71875 3.703125 22.65625 3.710938 C 22.304688 3.734375 21.953125 3.765625 21.605469 3.808594 C 21.542969 3.8125 21.480469 3.824219 21.414062 3.832031 C 21.066406 3.875 20.71875 3.929688 20.375 3.996094 C 20.308594 4.007812 20.246094 4.019531 20.183594 4.03125 C 19.835938 4.097656 19.496094 4.175781 19.15625 4.257812 C 19.09375 4.273438 19.03125 4.292969 18.96875 4.308594 C 18.625 4.398438 18.289062 4.492188 17.957031 4.601562 C 17.894531 4.621094 17.832031 4.640625 17.769531 4.660156 C 17.4375 4.769531 17.105469 4.890625 16.78125 5.015625 C 16.722656 5.039062 16.660156 5.0625 16.601562 5.089844 C 16.273438 5.21875 15.953125 5.359375 15.632812 5.507812 C 15.574219 5.535156 15.519531 5.5625 15.460938 5.589844 C 15.144531 5.742188 14.828125 5.902344 14.523438 6.070312 C 14.464844 6.101562 14.410156 6.132812 14.351562 6.164062 C 14.042969 6.332031 13.742188 6.511719 13.445312 6.699219 C 13.390625 6.734375 13.335938 6.769531 13.28125 6.804688 C 12.984375 6.992188 12.695312 7.191406 12.410156 7.394531 C 12.359375 7.433594 12.308594 7.472656 12.253906 7.507812 C 11.972656 7.71875 11.695312 7.933594 11.421875 8.15625 C 11.375 8.195312 11.324219 8.238281 11.273438 8.28125 C 11.003906 8.503906 10.742188 8.734375 10.484375 8.976562 C 10.4375 9.019531 10.390625 9.0625 10.34375 9.109375 C 10.089844 9.351562 9.839844 9.597656 9.597656 9.851562 C 9.554688 9.902344 9.507812 9.949219 9.464844 9.996094 C 9.226562 10.253906 8.996094 10.515625 8.769531 10.785156 C 8.726562 10.835938 8.6875 10.882812 8.644531 10.933594 C 8.421875 11.207031 8.207031 11.484375 8 11.765625 C 7.960938 11.816406 7.921875 11.867188 7.886719 11.921875 C 7.679688 12.207031 7.484375 12.496094 7.292969 12.792969 C 7.257812 12.847656 7.222656 12.902344 7.1875 12.957031 C 7.003906 13.253906 6.824219 13.554688 6.652344 13.863281 C 6.621094 13.917969 6.589844 13.976562 6.558594 14.03125 C 6.390625 14.339844 6.230469 14.652344 6.078125 14.96875 C 6.050781 15.027344 6.023438 15.085938 5.996094 15.144531 C 5.847656 15.460938 5.710938 15.785156 5.578125 16.109375 C 5.554688 16.171875 5.53125 16.230469 5.507812 16.292969 C 5.378906 16.617188 5.261719 16.945312 5.152344 17.28125 C 5.128906 17.34375 5.109375 17.402344 5.089844 17.464844 C 4.984375 17.800781 4.886719 18.136719 4.796875 18.476562 C 4.78125 18.539062 4.765625 18.601562 4.75 18.664062 C 4.664062 19.003906 4.585938 19.347656 4.519531 19.695312 C 4.507812 19.757812 4.496094 19.820312 4.484375 19.882812 C 4.421875 20.226562 4.367188 20.574219 4.320312 20.925781 C 4.3125 20.988281 4.304688 21.050781 4.296875 21.117188 C 4.253906 21.464844 4.222656 21.8125 4.199219 22.164062 C 4.195312 22.230469 4.191406 22.292969 4.1875 22.359375 C 4.167969 22.707031 4.15625 23.058594 4.15625 23.410156 C 4.15625 23.445312 4.15625 23.476562 4.15625 23.507812 C 4.15625 23.539062 4.15625 23.574219 4.15625 23.605469 C 4.15625 23.957031 4.167969 24.308594 4.1875 24.65625 C 4.191406 24.722656 4.195312 24.785156 4.199219 24.851562 C 4.222656 25.203125 4.253906 25.550781 4.296875 25.898438 C 4.304688 25.964844 4.3125 26.027344 4.320312 26.089844 C 4.367188 26.441406 4.421875 26.789062 4.484375 27.132812 C 4.496094 27.195312 4.507812 27.257812 4.519531 27.324219 C 4.585938 27.667969 4.664062 28.011719 4.75 28.351562 C 4.765625 28.414062 4.78125 28.476562 4.796875 28.539062 C 4.886719 28.878906 4.984375 29.214844 5.089844 29.550781 C 5.109375 29.613281 5.128906 29.671875 5.152344 29.734375 C 5.261719 30.070312 5.378906 30.398438 5.507812 30.722656 C 5.53125 30.785156 5.554688 30.84375 5.578125 30.90625 C 5.710938 31.230469 5.847656 31.554688 5.996094 31.871094 C 6.023438 31.929688 6.050781 31.988281 6.078125 32.046875 C 6.230469 32.363281 6.390625 32.675781 6.558594 32.984375 C 6.589844 33.039062 6.621094 33.097656 6.652344 33.15625 C 6.824219 33.460938 7.003906 33.761719 7.1875 34.058594 C 7.222656 34.113281 7.257812 34.167969 7.292969 34.222656 C 7.484375 34.519531 7.679688 34.8125 7.886719 35.09375 C 7.921875 35.148438 7.960938 35.199219 8 35.25 C 8.207031 35.535156 8.421875 35.8125 8.644531 36.082031 C 8.6875 36.132812 8.726562 36.183594 8.769531 36.230469 C 8.996094 36.5 9.226562 36.765625 9.464844 37.019531 C 9.507812 37.070312 9.554688 37.117188 9.597656 37.164062 C 9.839844 37.417969 10.089844 37.664062 10.34375 37.90625 C 10.390625 37.953125 10.4375 37.996094 10.484375 38.039062 C 10.742188 38.28125 11.003906 38.511719 11.273438 38.738281 C 11.324219 38.777344 11.375 38.820312 11.421875 38.859375 C 11.695312 39.082031 11.972656 39.296875 12.253906 39.507812 C 12.308594 39.546875 12.359375 39.582031 12.410156 39.621094 C 12.695312 39.824219 12.984375 40.023438 13.28125 40.210938 C 13.335938 40.246094 13.390625 40.28125 13.445312 40.316406 C 13.742188 40.503906 14.042969 40.683594 14.351562 40.851562 C 14.410156 40.886719 14.464844 40.917969 14.523438 40.945312 C 14.828125 41.117188 15.144531 41.273438 15.460938 41.425781 C 15.519531 41.453125 15.574219 41.480469 15.632812 41.507812 C 15.953125 41.65625 16.273438 41.796875 16.601562 41.925781 C 16.660156 41.953125 16.722656 41.976562 16.78125 42 C 17.105469 42.125 17.4375 42.246094 17.769531 42.355469 C 17.832031 42.375 17.894531 42.394531 17.957031 42.414062 C 18.289062 42.523438 18.625 42.621094 18.96875 42.707031 C 19.03125 42.726562 19.09375 42.742188 19.15625 42.757812 C 19.496094 42.839844 19.835938 42.917969 20.183594 42.984375 C 20.246094 43 20.308594 43.011719 20.375 43.023438 C 20.71875 43.085938 21.066406 43.140625 21.414062 43.183594 C 21.480469 43.191406 21.542969 43.203125 21.605469 43.207031 C 21.953125 43.25 22.304688 43.285156 22.65625 43.308594 C 22.71875 43.3125 22.785156 43.316406 22.847656 43.320312 C 23.195312 43.339844 23.546875 43.351562 23.902344 43.351562 C 23.933594 43.351562 23.964844 43.351562 23.996094 43.351562 C 24.03125 43.351562 24.0625 43.351562 24.09375 43.351562 C 24.449219 43.351562 24.796875 43.339844 25.148438 43.320312 C 25.210938 43.316406 25.277344 43.3125 25.339844 43.308594 C 25.691406 43.285156 26.042969 43.25 26.390625 43.207031 C 26.453125 43.203125 26.515625 43.191406 26.582031 43.183594 C 26.929688 43.140625 27.277344 43.085938 27.621094 43.023438 C 27.6875 43.011719 27.75 43 27.8125 42.984375 C 28.160156 42.917969 28.5 42.839844 28.839844 42.757812 C 28.902344 42.742188 28.964844 42.726562 29.027344 42.707031 C 29.367188 42.621094 29.707031 42.523438 30.039062 42.414062 C 30.101562 42.394531 30.164062 42.375 30.222656 42.355469 C 30.558594 42.246094 30.890625 42.125 31.214844 42 C 31.273438 41.976562 31.335938 41.953125 31.394531 41.925781 C 31.722656 41.796875 32.042969 41.65625 32.359375 41.507812 C 32.421875 41.480469 32.476562 41.453125 32.535156 41.425781 C 32.851562 41.273438 33.167969 41.117188 33.472656 40.945312 C 33.53125 40.917969 33.585938 40.886719 33.644531 40.851562 C 33.953125 40.683594 34.253906 40.503906 34.550781 40.316406 C 34.605469 40.28125 34.660156 40.246094 34.714844 40.210938 C 35.011719 40.023438 35.300781 39.824219 35.585938 39.621094 C 35.636719 39.582031 35.6875 39.546875 35.738281 39.507812 C 36.023438 39.296875 36.300781 39.082031 36.570312 38.859375 C 36.621094 38.820312 36.671875 38.777344 36.722656 38.738281 C 36.992188 38.511719 37.253906 38.28125 37.511719 38.039062 C 37.558594 37.996094 37.605469 37.953125 37.652344 37.90625 C 37.90625 37.664062 38.15625 37.417969 38.398438 37.164062 C 38.441406 37.117188 38.488281 37.070312 38.53125 37.019531 C 38.769531 36.765625 39 36.5 39.226562 36.230469 C 39.269531 36.183594 39.308594 36.132812 39.351562 36.082031 C 39.574219 35.8125 39.789062 35.535156 39.996094 35.25 C 40.035156 35.199219 40.074219 35.148438 40.109375 35.09375 C 40.316406 34.8125 40.511719 34.519531 40.703125 34.222656 C 40.738281 34.167969 40.773438 34.113281 40.804688 34.058594 C 40.992188 33.761719 41.171875 33.460938 41.34375 33.15625 C 41.375 33.097656 41.40625 33.039062 41.4375 32.984375 C 41.605469 32.675781 41.765625 32.363281 41.917969 32.046875 C 41.945312 31.988281 41.972656 31.929688 42 31.871094 C 42.148438 31.554688 42.285156 31.230469 42.417969 30.90625 C 42.441406 30.84375 42.464844 30.785156 42.488281 30.722656 C 42.617188 30.398438 42.734375 30.070312 42.84375 29.734375 C 42.863281 29.671875 42.886719 29.613281 42.90625 29.550781 C 43.011719 29.214844 43.109375 28.878906 43.199219 28.539062 C 43.214844 28.476562 43.230469 28.414062 43.246094 28.351562 C 43.332031 28.011719 43.410156 27.667969 43.476562 27.324219 C 43.488281 27.257812 43.5 27.195312 43.511719 27.132812 C 43.574219 26.789062 43.628906 26.441406 43.675781 26.089844 C 43.683594 26.027344 43.691406 25.964844 43.699219 25.898438 C 43.742188 25.550781 43.773438 25.203125 43.796875 24.851562 C 43.800781 24.785156 43.804688 24.722656 43.808594 24.65625 C 43.828125 24.308594 43.839844 23.957031 43.839844 23.605469 C 43.839844 23.574219 43.839844 23.539062 43.839844 23.507812 C 43.839844 23.476562 43.839844 23.445312 43.839844 23.410156 C 43.839844 23.058594 43.828125 22.707031 43.808594 22.359375 C 43.804688 22.292969 43.800781 22.230469 43.796875 22.164062 C 43.773438 21.8125 43.742188 21.464844 43.699219 21.117188 C 43.691406 21.050781 43.683594 20.988281 43.675781 20.925781 C 43.628906 20.574219 43.574219 20.226562 43.511719 19.882812 C 43.5 19.820312 43.488281 19.757812 43.476562 19.695312 C 43.410156 19.347656 43.332031 19.003906 43.246094 18.664062 C 43.230469 18.601562 43.214844 18.539062 43.199219 18.476562 C 43.109375 18.136719 43.011719 17.800781 42.90625 17.464844 C 42.886719 17.402344 42.863281 17.34375 42.84375 17.28125 C 42.734375 16.945312 42.617188 16.617188 42.488281 16.292969 C 42.464844 16.230469 42.441406 16.171875 42.417969 16.109375 C 42.285156 15.785156 42.148438 15.460938 42 15.144531 C 41.972656 15.085938 41.945312 15.027344 41.917969 14.96875 C 41.765625 14.652344 41.605469 14.339844 41.4375 14.03125 C 41.40625 13.976562 41.375 13.917969 41.34375 13.863281 C 41.171875 13.554688 40.992188 13.253906 40.804688 12.957031 C 40.773438 12.902344 40.738281 12.847656 40.703125 12.792969 C 40.511719 12.496094 40.316406 12.207031 40.109375 11.921875 Z M 43.074219 9.769531 " fill-opacity="1" fill-rule="nonzero"/></g><path fill="#cba6f7" d="M 24.09375 0 L 24.09375 3.664062 C 24.0625 3.664062 24.03125 3.664062 23.996094 3.664062 C 23.964844 3.664062 23.933594 3.664062 23.902344 3.664062 L 23.902344 0 C 23.933594 0 23.964844 0 23.996094 0 C 24.03125 0 24.0625 0 24.09375 0 Z M 24.09375 0 " fill-opacity="1" fill-rule="nonzero"/><g clip-path="url(#6a95308055)"><path fill="#cba6f7" d="M 24.09375 43.351562 L 24.09375 47.015625 C 24.0625 47.015625 24.03125 47.015625 23.996094 47.015625 C 23.964844 47.015625 23.933594 47.015625 23.902344 47.015625 L 23.902344 43.351562 C 23.933594 43.351562 23.964844 43.351562 23.996094 43.351562 C 24.03125 43.351562 24.0625 43.351562 24.09375 43.351562 Z M 24.09375 43.351562 " fill-opacity="1" fill-rule="nonzero"/></g><path fill="#cba6f7" d="M 22.847656 3.699219 C 22.785156 3.699219 22.71875 3.703125 22.65625 3.710938 L 22.425781 0.0507812 C 22.488281 0.046875 22.554688 0.0429688 22.617188 0.0390625 Z M 22.847656 3.699219 " fill-opacity="1" fill-rule="nonzero"/><path fill="#cba6f7" d="M 25.570312 46.964844 C 25.507812 46.96875 25.441406 46.972656 25.378906 46.976562 L 25.148438 43.320312 C 25.210938 43.316406 25.277344 43.3125 25.339844 43.308594 Z M 25.570312 46.964844 " fill-opacity="1" fill-rule="nonzero"/><path fill="#cba6f7" d="M 21.605469 3.808594 C 21.542969 3.8125 21.480469 3.824219 21.414062 3.832031 L 20.957031 0.195312 C 21.019531 0.1875 21.082031 0.179688 21.148438 0.171875 Z M 21.605469 3.808594 " fill-opacity="1" fill-rule="nonzero"/><path fill="#cba6f7" d="M 27.039062 46.820312 C 26.976562 46.828125 26.914062 46.835938 26.847656 46.84375 L 26.390625 43.207031 C 26.453125 43.203125 26.515625 43.191406 26.582031 43.183594 Z M 27.039062 46.820312 " fill-opacity="1" fill-rule="nonzero"/><path fill="#cba6f7" d="M 20.375 3.996094 C 20.308594 4.007812 20.246094 4.019531 20.183594 4.03125 L 19.496094 0.429688 C 19.5625 0.417969 19.625 0.40625 19.6875 0.394531 Z M 20.375 3.996094 " fill-opacity="1" fill-rule="nonzero"/><path fill="#cba6f7" d="M 28.5 46.585938 C 28.433594 46.597656 28.371094 46.609375 28.308594 46.621094 L 27.621094 43.023438 C 27.6875 43.011719 27.75 43 27.8125 42.984375 Z M 28.5 46.585938 " fill-opacity="1" fill-rule="nonzero"/><path fill="#cba6f7" d="M 19.15625 4.257812 C 19.09375 4.273438 19.03125 4.292969 18.96875 4.308594 L 18.054688 0.757812 C 18.117188 0.742188 18.183594 0.726562 18.242188 0.710938 Z M 19.15625 4.257812 " fill-opacity="1" fill-rule="nonzero"/><path fill="#cba6f7" d="M 29.9375 46.257812 C 29.878906 46.273438 29.8125 46.292969 29.75 46.304688 L 28.839844 42.757812 C 28.902344 42.742188 28.964844 42.726562 29.027344 42.707031 Z M 29.9375 46.257812 " fill-opacity="1" fill-rule="nonzero"/><path fill="#cba6f7" d="M 17.957031 4.601562 C 17.894531 4.621094 17.832031 4.640625 17.769531 4.660156 L 16.640625 1.175781 C 16.699219 1.15625 16.761719 1.132812 16.824219 1.113281 Z M 17.957031 4.601562 " fill-opacity="1" fill-rule="nonzero"/><path fill="#cba6f7" d="M 31.355469 45.839844 C 31.296875 45.863281 31.234375 45.882812 31.171875 45.902344 L 30.039062 42.414062 C 30.101562 42.394531 30.164062 42.375 30.222656 42.355469 Z M 31.355469 45.839844 " fill-opacity="1" fill-rule="nonzero"/><path fill="#cba6f7" d="M 16.78125 5.015625 C 16.722656 5.039062 16.660156 5.0625 16.601562 5.089844 L 15.253906 1.683594 C 15.3125 1.65625 15.371094 1.632812 15.433594 1.609375 Z M 16.78125 5.015625 " fill-opacity="1" fill-rule="nonzero"/><path fill="#cba6f7" d="M 32.742188 45.335938 C 32.683594 45.359375 32.625 45.382812 32.5625 45.40625 L 31.214844 42 C 31.273438 41.976562 31.335938 41.953125 31.394531 41.925781 Z M 32.742188 45.335938 " fill-opacity="1" fill-rule="nonzero"/><path fill="#cba6f7" d="M 15.632812 5.507812 C 15.574219 5.535156 15.519531 5.5625 15.460938 5.589844 L 13.898438 2.273438 C 13.957031 2.246094 14.015625 2.21875 14.074219 2.191406 Z M 15.632812 5.507812 " fill-opacity="1" fill-rule="nonzero"/><path fill="#cba6f7" d="M 34.097656 44.742188 C 34.039062 44.769531 33.980469 44.796875 33.921875 44.824219 L 32.359375 41.507812 C 32.421875 41.480469 32.476562 41.453125 32.535156 41.425781 Z M 34.097656 44.742188 " fill-opacity="1" fill-rule="nonzero"/><path fill="#cba6f7" d="M 14.523438 6.070312 C 14.464844 6.101562 14.410156 6.132812 14.351562 6.164062 L 12.585938 2.953125 C 12.644531 2.917969 12.699219 2.886719 12.757812 2.859375 Z M 14.523438 6.070312 " fill-opacity="1" fill-rule="nonzero"/><path fill="#cba6f7" d="M 35.410156 44.066406 C 35.351562 44.097656 35.296875 44.128906 35.238281 44.15625 L 33.472656 40.945312 C 33.53125 40.917969 33.585938 40.886719 33.644531 40.851562 Z M 35.410156 44.066406 " fill-opacity="1" fill-rule="nonzero"/><path fill="#cba6f7" d="M 13.445312 6.699219 C 13.390625 6.734375 13.335938 6.769531 13.28125 6.804688 L 11.320312 3.710938 C 11.375 3.675781 11.429688 3.640625 11.484375 3.605469 Z M 13.445312 6.699219 " fill-opacity="1" fill-rule="nonzero"/><path fill="#cba6f7" d="M 36.675781 43.308594 C 36.621094 43.34375 36.566406 43.375 36.511719 43.410156 L 34.550781 40.316406 C 34.605469 40.28125 34.660156 40.246094 34.714844 40.210938 Z M 36.675781 43.308594 " fill-opacity="1" fill-rule="nonzero"/><path fill="#cba6f7" d="M 12.410156 7.394531 C 12.359375 7.433594 12.308594 7.472656 12.253906 7.507812 L 10.101562 4.546875 C 10.152344 4.507812 10.207031 4.46875 10.257812 4.433594 Z M 12.410156 7.394531 " fill-opacity="1" fill-rule="nonzero"/><path fill="#cba6f7" d="M 37.894531 42.46875 C 37.84375 42.507812 37.789062 42.546875 37.738281 42.585938 L 35.585938 39.621094 C 35.636719 39.582031 35.6875 39.546875 35.738281 39.507812 Z M 37.894531 42.46875 " fill-opacity="1" fill-rule="nonzero"/><path fill="#cba6f7" d="M 11.421875 8.15625 C 11.375 8.195312 11.324219 8.238281 11.273438 8.28125 L 8.9375 5.457031 C 8.988281 5.414062 9.039062 5.375 9.085938 5.332031 Z M 11.421875 8.15625 " fill-opacity="1" fill-rule="nonzero"/><path fill="#cba6f7" d="M 39.058594 41.558594 C 39.007812 41.601562 38.957031 41.640625 38.90625 41.683594 L 36.570312 38.859375 C 36.621094 38.820312 36.671875 38.777344 36.722656 38.738281 Z M 39.058594 41.558594 " fill-opacity="1" fill-rule="nonzero"/><path fill="#cba6f7" d="M 10.484375 8.976562 C 10.4375 9.019531 10.390625 9.0625 10.34375 9.109375 L 7.835938 6.4375 C 7.882812 6.394531 7.929688 6.351562 7.976562 6.304688 Z M 10.484375 8.976562 " fill-opacity="1" fill-rule="nonzero"/><path fill="#cba6f7" d="M 40.160156 40.578125 C 40.113281 40.621094 40.066406 40.667969 40.019531 40.710938 L 37.511719 38.039062 C 37.558594 37.996094 37.605469 37.953125 37.652344 37.90625 Z M 40.160156 40.578125 " fill-opacity="1" fill-rule="nonzero"/><path fill="#cba6f7" d="M 9.597656 9.851562 C 9.554688 9.902344 9.507812 9.949219 9.464844 9.996094 L 6.796875 7.488281 C 6.839844 7.441406 6.882812 7.394531 6.929688 7.347656 Z M 9.597656 9.851562 " fill-opacity="1" fill-rule="nonzero"/><path fill="#cba6f7" d="M 41.199219 39.527344 C 41.15625 39.574219 41.113281 39.625 41.066406 39.671875 L 38.398438 37.164062 C 38.441406 37.117188 38.488281 37.070312 38.53125 37.019531 Z M 41.199219 39.527344 " fill-opacity="1" fill-rule="nonzero"/><path fill="#cba6f7" d="M 8.769531 10.785156 C 8.726562 10.835938 8.6875 10.882812 8.644531 10.933594 L 5.824219 8.597656 C 5.863281 8.546875 5.90625 8.5 5.945312 8.449219 Z M 8.769531 10.785156 " fill-opacity="1" fill-rule="nonzero"/><path fill="#cba6f7" d="M 42.171875 38.417969 C 42.132812 38.46875 42.089844 38.519531 42.050781 38.566406 L 39.226562 36.230469 C 39.269531 36.183594 39.308594 36.132812 39.351562 36.082031 Z M 42.171875 38.417969 " fill-opacity="1" fill-rule="nonzero"/><path fill="#cba6f7" d="M 8 11.765625 C 7.960938 11.816406 7.921875 11.867188 7.886719 11.921875 L 4.921875 9.769531 C 4.960938 9.714844 4.996094 9.664062 5.035156 9.613281 Z M 8 11.765625 " fill-opacity="1" fill-rule="nonzero"/><path fill="#cba6f7" d="M 43.074219 37.246094 C 43.035156 37.300781 43 37.351562 42.960938 37.402344 L 39.996094 35.25 C 40.035156 35.199219 40.074219 35.148438 40.109375 35.09375 Z M 43.074219 37.246094 " fill-opacity="1" fill-rule="nonzero"/><path fill="#cba6f7" d="M 7.292969 12.792969 C 7.257812 12.847656 7.222656 12.902344 7.1875 12.957031 L 4.09375 10.992188 C 4.128906 10.9375 4.164062 10.882812 4.199219 10.828125 Z M 7.292969 12.792969 " fill-opacity="1" fill-rule="nonzero"/><path fill="#cba6f7" d="M 43.902344 36.023438 C 43.867188 36.078125 43.832031 36.132812 43.796875 36.1875 L 40.703125 34.222656 C 40.738281 34.167969 40.773438 34.113281 40.804688 34.058594 Z M 43.902344 36.023438 " fill-opacity="1" fill-rule="nonzero"/><path fill="#cba6f7" d="M 6.652344 13.863281 C 6.621094 13.917969 6.589844 13.976562 6.558594 14.03125 L 3.347656 12.265625 C 3.378906 12.210938 3.410156 12.152344 3.441406 12.097656 Z M 6.652344 13.863281 " fill-opacity="1" fill-rule="nonzero"/><path fill="#cba6f7" d="M 44.648438 34.75 C 44.617188 34.804688 44.585938 34.863281 44.554688 34.921875 L 41.34375 33.15625 C 41.375 33.097656 41.40625 33.039062 41.4375 32.984375 Z M 44.648438 34.75 " fill-opacity="1" fill-rule="nonzero"/><path fill="#cba6f7" d="M 6.078125 14.96875 C 6.050781 15.027344 6.023438 15.085938 5.996094 15.144531 L 2.679688 13.585938 C 2.707031 13.523438 2.734375 13.46875 2.761719 13.410156 Z M 6.078125 14.96875 " fill-opacity="1" fill-rule="nonzero"/><path fill="#cba6f7" d="M 45.316406 33.433594 C 45.289062 33.492188 45.261719 33.550781 45.230469 33.605469 L 41.917969 32.046875 C 41.945312 31.988281 41.972656 31.929688 42 31.871094 Z M 45.316406 33.433594 " fill-opacity="1" fill-rule="nonzero"/><path fill="#cba6f7" d="M 5.578125 16.109375 C 5.554688 16.171875 5.53125 16.230469 5.507812 16.292969 L 2.097656 14.941406 C 2.121094 14.882812 2.144531 14.820312 2.171875 14.761719 Z M 5.578125 16.109375 " fill-opacity="1" fill-rule="nonzero"/><path fill="#cba6f7" d="M 45.898438 32.074219 C 45.875 32.132812 45.847656 32.195312 45.824219 32.253906 L 42.417969 30.90625 C 42.441406 30.84375 42.464844 30.785156 42.488281 30.722656 Z M 45.898438 32.074219 " fill-opacity="1" fill-rule="nonzero"/><path fill="#cba6f7" d="M 5.152344 17.28125 C 5.128906 17.34375 5.109375 17.402344 5.089844 17.464844 L 1.605469 16.332031 C 1.625 16.273438 1.644531 16.210938 1.664062 16.148438 Z M 5.152344 17.28125 " fill-opacity="1" fill-rule="nonzero"/><path fill="#cba6f7" d="M 46.390625 30.683594 C 46.371094 30.746094 46.351562 30.804688 46.332031 30.867188 L 42.84375 29.734375 C 42.863281 29.671875 42.886719 29.613281 42.90625 29.550781 Z M 46.390625 30.683594 " fill-opacity="1" fill-rule="nonzero"/><path fill="#cba6f7" d="M 4.796875 18.476562 C 4.78125 18.539062 4.765625 18.601562 4.75 18.664062 L 1.199219 17.753906 C 1.214844 17.691406 1.230469 17.628906 1.246094 17.566406 Z M 4.796875 18.476562 " fill-opacity="1" fill-rule="nonzero"/><path fill="#cba6f7" d="M 46.796875 29.261719 C 46.78125 29.324219 46.765625 29.386719 46.75 29.449219 L 43.199219 28.539062 C 43.214844 28.476562 43.230469 28.414062 43.246094 28.351562 Z M 46.796875 29.261719 " fill-opacity="1" fill-rule="nonzero"/><g clip-path="url(#4a4b958b6f)"><path fill="#cba6f7" d="M 4.519531 19.695312 C 4.507812 19.757812 4.496094 19.820312 4.484375 19.882812 L 0.882812 19.199219 C 0.894531 19.132812 0.90625 19.070312 0.917969 19.007812 Z M 4.519531 19.695312 " fill-opacity="1" fill-rule="nonzero"/></g><g clip-path="url(#24df7631db)"><path fill="#cba6f7" d="M 47.113281 27.820312 C 47.097656 27.882812 47.085938 27.945312 47.074219 28.007812 L 43.476562 27.324219 C 43.488281 27.257812 43.5 27.195312 43.511719 27.132812 Z M 47.113281 27.820312 " fill-opacity="1" fill-rule="nonzero"/></g><g clip-path="url(#9278612d0b)"><path fill="#cba6f7" d="M 4.320312 20.925781 C 4.3125 20.988281 4.304688 21.050781 4.296875 21.117188 L 0.660156 20.65625 C 0.667969 20.59375 0.675781 20.53125 0.683594 20.464844 Z M 4.320312 20.925781 " fill-opacity="1" fill-rule="nonzero"/></g><g clip-path="url(#c922f10401)"><path fill="#cba6f7" d="M 47.335938 26.359375 C 47.328125 26.421875 47.320312 26.484375 47.3125 26.550781 L 43.675781 26.089844 C 43.683594 26.027344 43.691406 25.964844 43.699219 25.898438 Z M 47.335938 26.359375 " fill-opacity="1" fill-rule="nonzero"/></g><g clip-path="url(#5b5142df98)"><path fill="#cba6f7" d="M 4.199219 22.164062 C 4.195312 22.230469 4.191406 22.292969 4.1875 22.359375 L 0.53125 22.128906 C 0.535156 22.0625 0.535156 22 0.542969 21.933594 Z M 4.199219 22.164062 " fill-opacity="1" fill-rule="nonzero"/></g><g clip-path="url(#31bbbc2b42)"><path fill="#cba6f7" d="M 47.464844 24.886719 C 47.460938 24.953125 47.457031 25.015625 47.453125 25.082031 L 43.796875 24.851562 C 43.800781 24.785156 43.804688 24.722656 43.808594 24.65625 Z M 47.464844 24.886719 " fill-opacity="1" fill-rule="nonzero"/></g><g clip-path="url(#878040ede9)"><path fill="#cba6f7" d="M 4.152344 23.507812 C 4.152344 23.539062 4.152344 23.574219 4.152344 23.605469 L 0.492188 23.605469 C 0.488281 23.574219 0.488281 23.539062 0.488281 23.507812 C 0.488281 23.476562 0.488281 23.445312 0.492188 23.410156 L 4.15625 23.410156 C 4.15625 23.445312 4.15625 23.476562 4.15625 23.507812 Z M 4.152344 23.507812 " fill-opacity="1" fill-rule="nonzero"/></g><g clip-path="url(#b170a78bae)"><path fill="#cba6f7" d="M 47.507812 23.507812 C 47.507812 23.539062 47.507812 23.574219 47.503906 23.605469 L 43.839844 23.605469 C 43.839844 23.574219 43.839844 23.539062 43.839844 23.507812 C 43.839844 23.476562 43.839844 23.445312 43.839844 23.410156 L 47.503906 23.410156 C 47.507812 23.445312 47.507812 23.476562 47.507812 23.507812 Z M 47.507812 23.507812 " fill-opacity="1" fill-rule="nonzero"/></g><g clip-path="url(#82be037780)"><path fill="#cba6f7" d="M 4.199219 24.851562 L 0.542969 25.082031 C 0.535156 25.015625 0.535156 24.953125 0.53125 24.886719 L 4.1875 24.65625 C 4.191406 24.722656 4.195312 24.785156 4.199219 24.851562 Z M 4.199219 24.851562 " fill-opacity="1" fill-rule="nonzero"/></g><g clip-path="url(#27a44ac8d0)"><path fill="#cba6f7" d="M 47.464844 22.128906 L 43.808594 22.359375 C 43.804688 22.292969 43.800781 22.230469 43.796875 22.164062 L 47.453125 21.933594 C 47.457031 22 47.460938 22.0625 47.464844 22.128906 Z M 47.464844 22.128906 " fill-opacity="1" fill-rule="nonzero"/></g><g clip-path="url(#a378314098)"><path fill="#cba6f7" d="M 4.320312 26.089844 L 0.683594 26.550781 C 0.675781 26.484375 0.667969 26.421875 0.660156 26.359375 L 4.296875 25.898438 C 4.304688 25.964844 4.3125 26.027344 4.320312 26.089844 Z M 4.320312 26.089844 " fill-opacity="1" fill-rule="nonzero"/></g><g clip-path="url(#2f4a76d675)"><path fill="#cba6f7" d="M 47.335938 20.65625 L 43.699219 21.117188 C 43.691406 21.050781 43.683594 20.988281 43.675781 20.925781 L 47.3125 20.464844 C 47.320312 20.53125 47.328125 20.59375 47.335938 20.65625 Z M 47.335938 20.65625 " fill-opacity="1" fill-rule="nonzero"/></g><g clip-path="url(#7c1abbc13b)"><path fill="#cba6f7" d="M 4.519531 27.324219 L 0.917969 28.007812 C 0.90625 27.945312 0.894531 27.882812 0.882812 27.820312 L 4.484375 27.132812 C 4.496094 27.195312 4.507812 27.257812 4.519531 27.324219 Z M 4.519531 27.324219 " fill-opacity="1" fill-rule="nonzero"/></g><g clip-path="url(#a3bbb2dd78)"><path fill="#cba6f7" d="M 47.113281 19.199219 L 43.511719 19.882812 C 43.5 19.820312 43.488281 19.757812 43.476562 19.695312 L 47.074219 19.007812 C 47.085938 19.070312 47.097656 19.132812 47.113281 19.199219 Z M 47.113281 19.199219 " fill-opacity="1" fill-rule="nonzero"/></g><path fill="#cba6f7" d="M 4.796875 28.539062 L 1.246094 29.449219 C 1.230469 29.386719 1.214844 29.324219 1.199219 29.261719 L 4.75 28.351562 C 4.765625 28.414062 4.78125 28.476562 4.796875 28.539062 Z M 4.796875 28.539062 " fill-opacity="1" fill-rule="nonzero"/><path fill="#cba6f7" d="M 46.796875 17.753906 L 43.246094 18.664062 C 43.230469 18.601562 43.214844 18.539062 43.199219 18.476562 L 46.75 17.566406 C 46.765625 17.628906 46.78125 17.691406 46.796875 17.753906 Z M 46.796875 17.753906 " fill-opacity="1" fill-rule="nonzero"/><path fill="#cba6f7" d="M 5.152344 29.734375 L 1.664062 30.867188 C 1.644531 30.804688 1.625 30.746094 1.605469 30.683594 L 5.089844 29.550781 C 5.109375 29.613281 5.128906 29.671875 5.152344 29.734375 Z M 5.152344 29.734375 " fill-opacity="1" fill-rule="nonzero"/><path fill="#cba6f7" d="M 46.390625 16.332031 L 42.90625 17.464844 C 42.886719 17.402344 42.863281 17.34375 42.84375 17.28125 L 46.332031 16.148438 C 46.351562 16.210938 46.371094 16.273438 46.390625 16.332031 Z M 46.390625 16.332031 " fill-opacity="1" fill-rule="nonzero"/><path fill="#cba6f7" d="M 5.578125 30.90625 L 2.171875 32.253906 C 2.144531 32.195312 2.121094 32.132812 2.097656 32.074219 L 5.507812 30.722656 C 5.53125 30.785156 5.554688 30.84375 5.578125 30.90625 Z M 5.578125 30.90625 " fill-opacity="1" fill-rule="nonzero"/><path fill="#cba6f7" d="M 45.898438 14.941406 L 42.488281 16.292969 C 42.464844 16.230469 42.441406 16.171875 42.417969 16.109375 L 45.824219 14.761719 C 45.847656 14.820312 45.875 14.882812 45.898438 14.941406 Z M 45.898438 14.941406 " fill-opacity="1" fill-rule="nonzero"/><path fill="#cba6f7" d="M 6.078125 32.046875 L 2.761719 33.605469 C 2.734375 33.550781 2.707031 33.492188 2.679688 33.433594 L 5.996094 31.871094 C 6.023438 31.929688 6.050781 31.988281 6.078125 32.046875 Z M 6.078125 32.046875 " fill-opacity="1" fill-rule="nonzero"/><path fill="#cba6f7" d="M 45.316406 13.585938 L 42 15.144531 C 41.972656 15.085938 41.945312 15.027344 41.917969 14.96875 L 45.230469 13.410156 C 45.261719 13.46875 45.289062 13.523438 45.316406 13.585938 Z M 45.316406 13.585938 " fill-opacity="1" fill-rule="nonzero"/><path fill="#cba6f7" d="M 6.652344 33.15625 L 3.441406 34.921875 C 3.410156 34.863281 3.378906 34.804688 3.347656 34.75 L 6.558594 32.984375 C 6.589844 33.039062 6.621094 33.097656 6.652344 33.15625 Z M 6.652344 33.15625 " fill-opacity="1" fill-rule="nonzero"/><path fill="#cba6f7" d="M 44.648438 12.265625 L 41.4375 14.03125 C 41.40625 13.976562 41.375 13.917969 41.34375 13.863281 L 44.554688 12.097656 C 44.585938 12.152344 44.617188 12.210938 44.648438 12.265625 Z M 44.648438 12.265625 " fill-opacity="1" fill-rule="nonzero"/><path fill="#cba6f7" d="M 7.292969 34.222656 L 4.199219 36.1875 C 4.164062 36.132812 4.128906 36.078125 4.09375 36.023438 L 7.1875 34.058594 C 7.222656 34.113281 7.257812 34.167969 7.292969 34.222656 Z M 7.292969 34.222656 " fill-opacity="1" fill-rule="nonzero"/><path fill="#cba6f7" d="M 43.902344 10.992188 L 40.804688 12.957031 C 40.773438 12.902344 40.738281 12.847656 40.703125 12.792969 L 43.796875 10.828125 C 43.832031 10.882812 43.867188 10.9375 43.902344 10.992188 Z M 43.902344 10.992188 " fill-opacity="1" fill-rule="nonzero"/><path fill="#cba6f7" d="M 8 35.25 L 5.035156 37.402344 C 4.996094 37.351562 4.960938 37.300781 4.921875 37.246094 L 7.886719 35.09375 C 7.921875 35.148438 7.960938 35.199219 8 35.25 Z M 8 35.25 " fill-opacity="1" fill-rule="nonzero"/><path fill="#cba6f7" d="M 8.769531 36.230469 L 5.945312 38.566406 C 5.90625 38.519531 5.863281 38.46875 5.824219 38.417969 L 8.644531 36.082031 C 8.6875 36.132812 8.726562 36.183594 8.769531 36.230469 Z M 8.769531 36.230469 " fill-opacity="1" fill-rule="nonzero"/><path fill="#cba6f7" d="M 9.597656 37.164062 L 6.929688 39.671875 C 6.882812 39.625 6.839844 39.574219 6.796875 39.527344 L 9.464844 37.019531 C 9.507812 37.070312 9.554688 37.117188 9.597656 37.164062 Z M 9.597656 37.164062 " fill-opacity="1" fill-rule="nonzero"/><path fill="#cba6f7" d="M 10.484375 38.039062 L 7.976562 40.710938 C 7.929688 40.667969 7.882812 40.621094 7.835938 40.578125 L 10.34375 37.90625 C 10.390625 37.953125 10.4375 37.996094 10.484375 38.039062 Z M 10.484375 38.039062 " fill-opacity="1" fill-rule="nonzero"/><path fill="#cba6f7" d="M 11.421875 38.859375 L 9.085938 41.683594 C 9.039062 41.640625 8.988281 41.601562 8.9375 41.558594 L 11.273438 38.738281 C 11.324219 38.777344 11.375 38.820312 11.421875 38.859375 Z M 11.421875 38.859375 " fill-opacity="1" fill-rule="nonzero"/><path fill="#cba6f7" d="M 12.410156 39.621094 L 10.257812 42.585938 C 10.207031 42.546875 10.152344 42.507812 10.101562 42.46875 L 12.253906 39.507812 C 12.308594 39.546875 12.359375 39.582031 12.410156 39.621094 Z M 12.410156 39.621094 " fill-opacity="1" fill-rule="nonzero"/><path fill="#cba6f7" d="M 13.445312 40.316406 L 11.484375 43.410156 C 11.429688 43.375 11.375 43.34375 11.320312 43.308594 L 13.28125 40.210938 C 13.335938 40.246094 13.390625 40.28125 13.445312 40.316406 Z M 13.445312 40.316406 " fill-opacity="1" fill-rule="nonzero"/><path fill="#cba6f7" d="M 14.523438 40.945312 L 12.757812 44.15625 C 12.699219 44.128906 12.644531 44.097656 12.585938 44.066406 L 14.351562 40.851562 C 14.410156 40.886719 14.464844 40.917969 14.523438 40.945312 Z M 14.523438 40.945312 " fill-opacity="1" fill-rule="nonzero"/><path fill="#cba6f7" d="M 15.632812 41.507812 L 14.074219 44.824219 C 14.015625 44.796875 13.957031 44.769531 13.898438 44.742188 L 15.460938 41.425781 C 15.519531 41.453125 15.574219 41.480469 15.632812 41.507812 Z M 15.632812 41.507812 " fill-opacity="1" fill-rule="nonzero"/><path fill="#cba6f7" d="M 16.78125 42 L 15.433594 45.40625 C 15.371094 45.382812 15.3125 45.359375 15.253906 45.335938 L 16.601562 41.925781 C 16.660156 41.953125 16.722656 41.976562 16.78125 42 Z M 16.78125 42 " fill-opacity="1" fill-rule="nonzero"/><path fill="#cba6f7" d="M 17.957031 42.414062 L 16.824219 45.902344 C 16.761719 45.882812 16.699219 45.863281 16.640625 45.839844 L 17.769531 42.355469 C 17.832031 42.375 17.894531 42.394531 17.957031 42.414062 Z M 17.957031 42.414062 " fill-opacity="1" fill-rule="nonzero"/><path fill="#cba6f7" d="M 19.15625 42.757812 L 18.242188 46.304688 C 18.183594 46.292969 18.117188 46.273438 18.054688 46.257812 L 18.96875 42.707031 C 19.03125 42.726562 19.09375 42.742188 19.15625 42.757812 Z M 19.15625 42.757812 " fill-opacity="1" fill-rule="nonzero"/><path fill="#cba6f7" d="M 20.375 43.023438 L 19.6875 46.621094 C 19.625 46.609375 19.5625 46.597656 19.496094 46.585938 L 20.183594 42.984375 C 20.246094 43 20.308594 43.011719 20.375 43.023438 Z M 20.375 43.023438 " fill-opacity="1" fill-rule="nonzero"/><path fill="#cba6f7" d="M 21.605469 43.207031 L 21.148438 46.84375 C 21.082031 46.835938 21.019531 46.828125 20.957031 46.820312 L 21.414062 43.183594 C 21.480469 43.191406 21.542969 43.203125 21.605469 43.207031 Z M 21.605469 43.207031 " fill-opacity="1" fill-rule="nonzero"/><path fill="#cba6f7" d="M 22.847656 43.320312 L 22.617188 46.976562 C 22.554688 46.972656 22.488281 46.96875 22.425781 46.964844 L 22.65625 43.308594 C 22.71875 43.3125 22.785156 43.316406 22.847656 43.320312 Z M 22.847656 43.320312 " fill-opacity="1" fill-rule="nonzero"/><g clip-path="url(#2c9fa403c9)"><path fill="#f2cdcd" d="M 28.855469 32.734375 L 28.09375 32.734375 L 28.09375 27.734375 C 28.09375 27.429688 28.0625 27.125 28.003906 26.828125 C 27.914062 26.375 27.757812 25.945312 27.539062 25.542969 C 27.316406 25.136719 27.042969 24.773438 26.710938 24.449219 C 26.382812 24.128906 26.011719 23.859375 25.601562 23.652344 C 25.191406 23.441406 24.757812 23.296875 24.300781 23.21875 L 24.300781 22.859375 C 24.832031 22.765625 25.332031 22.585938 25.800781 22.316406 C 26.265625 22.042969 26.675781 21.703125 27.019531 21.289062 C 27.367188 20.875 27.632812 20.417969 27.816406 19.910156 C 28 19.402344 28.09375 18.878906 28.09375 18.339844 L 28.09375 13.339844 L 28.855469 13.339844 C 29.082031 13.34375 29.304688 13.300781 29.515625 13.214844 C 29.730469 13.128906 29.917969 13.007812 30.082031 12.847656 C 30.242188 12.683594 30.371094 12.5 30.457031 12.289062 C 30.546875 12.078125 30.589844 11.855469 30.589844 11.628906 C 30.589844 11.398438 30.546875 11.179688 30.457031 10.964844 C 30.371094 10.753906 30.242188 10.570312 30.082031 10.40625 C 29.917969 10.246094 29.730469 10.125 29.515625 10.039062 C 29.304688 9.953125 29.082031 9.910156 28.855469 9.914062 L 18.164062 9.914062 C 17.933594 9.910156 17.714844 9.953125 17.5 10.039062 C 17.289062 10.125 17.101562 10.246094 16.9375 10.40625 C 16.773438 10.570312 16.648438 10.753906 16.558594 10.964844 C 16.472656 11.179688 16.429688 11.398438 16.429688 11.628906 C 16.429688 11.855469 16.472656 12.078125 16.558594 12.289062 C 16.648438 12.5 16.773438 12.683594 16.9375 12.847656 C 17.101562 13.007812 17.289062 13.128906 17.5 13.214844 C 17.714844 13.300781 17.933594 13.34375 18.164062 13.339844 L 18.925781 13.339844 L 18.925781 18.339844 C 18.925781 18.878906 19.015625 19.402344 19.199219 19.910156 C 19.386719 20.417969 19.652344 20.875 19.996094 21.289062 C 20.34375 21.703125 20.75 22.046875 21.21875 22.316406 C 21.683594 22.585938 22.183594 22.765625 22.714844 22.859375 L 22.714844 23.21875 C 22.183594 23.3125 21.6875 23.492188 21.21875 23.761719 C 20.75 24.03125 20.34375 24.371094 20 24.785156 C 19.652344 25.199219 19.386719 25.660156 19.203125 26.164062 C 19.015625 26.671875 18.925781 27.195312 18.925781 27.734375 L 18.925781 32.734375 L 18.164062 32.734375 C 17.933594 32.730469 17.714844 32.773438 17.5 32.859375 C 17.289062 32.945312 17.101562 33.066406 16.9375 33.230469 C 16.773438 33.390625 16.648438 33.574219 16.5625 33.789062 C 16.472656 34 16.429688 34.21875 16.429688 34.449219 C 16.429688 34.675781 16.472656 34.898438 16.5625 35.109375 C 16.648438 35.320312 16.773438 35.507812 16.9375 35.667969 C 17.101562 35.828125 17.289062 35.953125 17.5 36.035156 C 17.714844 36.121094 17.933594 36.164062 18.164062 36.160156 L 28.855469 36.160156 C 29.085938 36.164062 29.304688 36.121094 29.519531 36.035156 C 29.730469 35.953125 29.917969 35.828125 30.082031 35.667969 C 30.242188 35.507812 30.371094 35.320312 30.457031 35.109375 C 30.546875 34.898438 30.589844 34.675781 30.589844 34.449219 C 30.589844 34.21875 30.546875 34 30.457031 33.789062 C 30.371094 33.574219 30.242188 33.390625 30.082031 33.230469 C 29.917969 33.066406 29.730469 32.945312 29.519531 32.859375 C 29.304688 32.773438 29.085938 32.730469 28.855469 32.734375 Z M 17.035156 11.628906 C 17.035156 11.480469 17.066406 11.335938 17.121094 11.199219 C 17.179688 11.058594 17.261719 10.9375 17.367188 10.832031 C 17.472656 10.726562 17.59375 10.644531 17.730469 10.585938 C 17.871094 10.53125 18.015625 10.5 18.164062 10.5 L 28.855469 10.5 C 29.007812 10.5 29.152344 10.527344 29.292969 10.582031 C 29.433594 10.636719 29.554688 10.71875 29.664062 10.824219 C 29.773438 10.929688 29.855469 11.054688 29.914062 11.191406 C 29.972656 11.332031 30 11.476562 30 11.628906 C 30 11.78125 29.972656 11.925781 29.914062 12.0625 C 29.855469 12.203125 29.773438 12.324219 29.664062 12.433594 C 29.554688 12.539062 29.433594 12.617188 29.292969 12.675781 C 29.152344 12.730469 29.007812 12.757812 28.855469 12.753906 L 18.164062 12.753906 C 18.015625 12.753906 17.871094 12.726562 17.730469 12.667969 C 17.59375 12.613281 17.472656 12.53125 17.367188 12.425781 C 17.261719 12.320312 17.179688 12.199219 17.121094 12.058594 C 17.066406 11.921875 17.035156 11.777344 17.035156 11.628906 Z M 27.5 27.558594 C 27.5 27.617188 27.507812 27.675781 27.507812 27.734375 L 27.507812 32.730469 L 19.511719 32.730469 L 19.511719 31.027344 C 21.023438 31.011719 22.472656 30.703125 23.855469 30.101562 C 25.242188 29.5 26.457031 28.652344 27.5 27.558594 Z M 27.507812 16.71875 C 26.269531 17.230469 24.980469 17.496094 23.640625 17.515625 C 22.210938 17.527344 20.832031 17.265625 19.511719 16.71875 L 19.511719 13.34375 L 27.503906 13.34375 Z M 23.042969 23.761719 C 23.214844 23.742188 23.300781 23.644531 23.300781 23.472656 L 23.300781 22.605469 C 23.300781 22.433594 23.214844 22.335938 23.042969 22.316406 C 22.554688 22.257812 22.09375 22.117188 21.660156 21.890625 C 21.226562 21.664062 20.847656 21.367188 20.519531 21 C 20.195312 20.632812 19.945312 20.222656 19.773438 19.761719 C 19.597656 19.304688 19.511719 18.832031 19.511719 18.339844 L 19.511719 17.347656 C 20.800781 17.847656 22.132812 18.097656 23.515625 18.101562 L 23.648438 18.101562 C 24.980469 18.085938 26.265625 17.835938 27.507812 17.351562 L 27.507812 18.339844 C 27.507812 18.832031 27.421875 19.304688 27.246094 19.761719 C 27.074219 20.222656 26.824219 20.632812 26.496094 21 C 26.171875 21.367188 25.792969 21.664062 25.359375 21.890625 C 24.921875 22.117188 24.460938 22.257812 23.976562 22.316406 C 23.804688 22.335938 23.71875 22.433594 23.714844 22.605469 L 23.714844 23.472656 C 23.714844 23.644531 23.804688 23.742188 23.976562 23.761719 C 24.382812 23.808594 24.773438 23.917969 25.148438 24.085938 C 25.523438 24.253906 25.863281 24.472656 26.167969 24.746094 C 26.476562 25.019531 26.734375 25.332031 26.941406 25.683594 C 27.152344 26.039062 27.300781 26.414062 27.394531 26.8125 C 27.386719 26.820312 27.378906 26.824219 27.375 26.832031 C 26.378906 27.960938 25.195312 28.84375 23.824219 29.472656 C 22.457031 30.101562 21.019531 30.425781 19.511719 30.441406 L 19.511719 27.734375 C 19.511719 27.242188 19.597656 26.769531 19.773438 26.3125 C 19.945312 25.855469 20.195312 25.441406 20.523438 25.078125 C 20.847656 24.710938 21.226562 24.414062 21.660156 24.1875 C 22.097656 23.960938 22.554688 23.820312 23.042969 23.761719 Z M 28.855469 35.574219 L 18.164062 35.574219 C 18.011719 35.578125 17.867188 35.550781 17.726562 35.492188 C 17.585938 35.4375 17.460938 35.355469 17.355469 35.25 C 17.246094 35.144531 17.164062 35.023438 17.105469 34.882812 C 17.046875 34.742188 17.019531 34.597656 17.019531 34.445312 C 17.019531 34.296875 17.046875 34.152344 17.105469 34.011719 C 17.164062 33.871094 17.246094 33.75 17.355469 33.644531 C 17.460938 33.539062 17.585938 33.457031 17.726562 33.402344 C 17.867188 33.34375 18.011719 33.316406 18.164062 33.320312 L 28.855469 33.320312 C 29.007812 33.316406 29.152344 33.34375 29.292969 33.402344 C 29.433594 33.457031 29.554688 33.539062 29.664062 33.644531 C 29.773438 33.75 29.855469 33.871094 29.914062 34.011719 C 29.972656 34.152344 30 34.296875 30 34.445312 C 30 34.597656 29.972656 34.742188 29.914062 34.882812 C 29.855469 35.023438 29.773438 35.144531 29.664062 35.25 C 29.554688 35.355469 29.433594 35.4375 29.292969 35.492188 C 29.152344 35.550781 29.007812 35.578125 28.855469 35.574219 Z M 23.214844 26.273438 L 23.214844 25.242188 C 23.214844 25.160156 23.246094 25.089844 23.300781 25.035156 C 23.359375 24.976562 23.429688 24.949219 23.507812 24.949219 C 23.589844 24.949219 23.660156 24.976562 23.714844 25.035156 C 23.773438 25.089844 23.800781 25.160156 23.800781 25.242188 L 23.800781 26.273438 C 23.800781 26.351562 23.773438 26.421875 23.714844 26.480469 C 23.660156 26.535156 23.589844 26.566406 23.507812 26.566406 C 23.429688 26.566406 23.359375 26.535156 23.300781 26.480469 C 23.246094 26.421875 23.214844 26.351562 23.214844 26.273438 Z M 22.101562 26.886719 L 22.101562 25.757812 C 22.101562 25.675781 22.132812 25.605469 22.1875 25.550781 C 22.246094 25.492188 22.316406 25.464844 22.394531 25.464844 C 22.476562 25.464844 22.546875 25.492188 22.601562 25.550781 C 22.660156 25.605469 22.6875 25.675781 22.6875 25.757812 L 22.6875 26.886719 C 22.6875 26.964844 22.660156 27.035156 22.601562 27.09375 C 22.546875 27.148438 22.476562 27.179688 22.394531 27.179688 C 22.316406 27.179688 22.246094 27.148438 22.1875 27.09375 C 22.132812 27.035156 22.101562 26.964844 22.101562 26.886719 Z M 24.109375 28.0625 L 24.109375 27.242188 C 24.109375 27.160156 24.140625 27.089844 24.195312 27.035156 C 24.253906 26.976562 24.324219 26.949219 24.402344 26.949219 C 24.484375 26.949219 24.554688 26.976562 24.609375 27.035156 C 24.667969 27.089844 24.695312 27.160156 24.695312 27.242188 L 24.695312 28.0625 C 24.695312 28.144531 24.667969 28.210938 24.609375 28.269531 C 24.554688 28.328125 24.484375 28.355469 24.402344 28.355469 C 24.324219 28.355469 24.253906 28.328125 24.195312 28.269531 C 24.140625 28.210938 24.109375 28.144531 24.109375 28.0625 Z M 22.101562 28.984375 L 22.101562 28.417969 C 22.101562 28.335938 22.132812 28.269531 22.1875 28.210938 C 22.246094 28.152344 22.316406 28.125 22.394531 28.125 C 22.476562 28.125 22.546875 28.152344 22.601562 28.210938 C 22.660156 28.269531 22.6875 28.335938 22.6875 28.417969 L 22.6875 28.984375 C 22.6875 29.066406 22.660156 29.136719 22.601562 29.191406 C 22.546875 29.25 22.476562 29.277344 22.394531 29.277344 C 22.316406 29.277344 22.246094 29.25 22.1875 29.191406 C 22.132812 29.136719 22.101562 29.066406 22.101562 28.984375 Z M 22.101562 28.984375 " fill-opacity="1" fill-rule="nonzero"/></g></svg>